<svg xmlns="http://www.w3.org/2000/svg" width="210" height="32" viewBox="0 0 210 32" fill="none">

    <path fill-rule="evenodd" clip-rule="evenodd" d="M27.4271 16C27.4271 24.8361 20.2794 32 11.4631 32C7.90167 32 4.61184 30.8306 1.9567 28.8556C2.41125 29.1111 2.87962 29.3416 3.36188 29.55C5.18832 30.3389 7.15612 30.7472 9.14609 30.7472C12.8516 30.7472 16.4187 29.3416 19.1347 26.8195C21.8508 24.2972 23.5193 20.8389 23.802 17.1361C23.8409 16.7862 23.8629 16.4361 23.8685 16.0861C23.8685 15.6388 23.8325 15.1222 23.7853 14.65C23.7826 14.6056 23.7798 14.5583 23.7771 14.5139C23.7771 14.4611 23.7742 14.4083 23.7687 14.3583L23.7549 14.3722C23.6884 13.7583 23.6191 13.2861 23.6191 13.2861H12.0368L11.1361 14.975L9.06848 18.8917H17.821C17.4967 19.8612 17.0117 20.7722 16.3881 21.5833C15.5372 22.7 14.4425 23.6028 13.1842 24.2251C11.9287 24.8472 10.5457 25.1723 9.14331 25.1694C8.07072 25.1694 7.00646 24.975 6.00039 24.6027C4.24046 23.9584 2.72166 22.789 1.64907 21.25C0.57648 19.7084 0 17.8778 0 16C0 14.7972 0.235582 13.6028 0.695657 12.4917C1.15573 11.3806 1.82921 10.3694 2.67732 9.51666C3.5254 8.66667 4.53425 7.98888 5.64563 7.53056C6.75702 7.07223 7.94601 6.83334 9.14609 6.83334C11.0834 6.83056 12.9736 7.44723 14.5367 8.59445L15.7368 6.34166L17.1669 3.63334C14.7806 2.075 11.9925 1.24722 9.14331 1.25C6.62398 1.25 4.17116 1.9 2.00105 3.10556C4.65342 1.15556 7.92383 0 11.4631 0C20.2794 0 27.4271 7.16388 27.4271 16Z" fill="#ff4c00"/>
    <path d="M70.7825 19.6361C70.2195 20.3118 69.513 20.8546 68.7121 21.2153C67.9986 21.5304 67.2222 21.688 66.4422 21.6845C65.4455 21.702 64.4592 21.4604 63.5813 20.9807C63.5498 20.9632 63.5219 20.9422 63.4904 20.9212C62.7069 20.4694 62.0599 19.8112 61.6193 19.0164C61.14 18.1375 60.8987 17.1534 60.9163 16.1521C60.8987 15.1541 61.14 14.1667 61.6193 13.2878C62.0599 12.4964 62.7035 11.8381 63.4904 11.3829C63.5219 11.3654 63.5498 11.3409 63.5813 11.3234C64.4592 10.8437 65.4419 10.6021 66.4422 10.6196C67.2257 10.6126 67.9986 10.7702 68.7156 11.0818L70.3419 8.02146C70.3419 8.02146 70.3175 8.00745 70.3034 8.00045C69.0199 7.46472 67.6383 7.19509 66.2464 7.21259C64.7075 7.19509 63.1895 7.53474 61.8012 8.20004C61.6856 8.25606 61.5633 8.29808 61.4479 8.36111C60.0595 9.09293 58.8983 10.1959 58.0938 11.5475C57.272 12.9411 56.8488 14.5343 56.8733 16.1521C56.8488 17.7697 57.272 19.3629 58.0938 20.7565C58.8983 22.1047 60.0595 23.2078 61.4479 23.9396C61.5633 24.0025 61.6856 24.0446 61.8012 24.1006C63.1792 24.7624 64.69 25.1021 66.2185 25.0879C67.6139 25.109 68.9989 24.8395 70.2859 24.2967C70.3034 24.2896 70.3175 24.2792 70.3349 24.2722C71.5031 23.7644 72.5347 22.9871 73.3426 21.9997L70.779 19.6292L70.7825 19.6361Z" fill="#251b29"/>
    <path d="M79.1799 23.9291C77.7809 23.1937 76.6129 22.0872 75.8014 20.7321C74.9795 19.3491 74.5563 17.7629 74.5808 16.1521C74.5563 14.5414 74.9795 12.9552 75.8014 11.5721C76.6129 10.217 77.7809 9.11052 79.1799 8.3752C80.6733 7.58734 82.3381 7.19167 84.0274 7.21268C85.7097 7.18466 87.3745 7.58384 88.8608 8.3717C90.2564 9.11052 91.4246 10.217 92.2394 11.5686C93.0683 12.9517 93.4949 14.5379 93.4741 16.1486C93.4949 17.7593 93.0683 19.3456 92.2394 20.7287C91.4246 22.0803 90.2564 23.1868 88.8608 23.9255C87.3745 24.7135 85.7097 25.1127 84.0274 25.088C82.3417 25.1127 80.6733 24.7135 79.1799 23.9255V23.9291ZM86.7868 20.9773C87.6018 20.515 88.2733 19.8358 88.7244 19.0128C89.2035 18.134 89.445 17.1501 89.4274 16.1486C89.445 15.1508 89.2035 14.1633 88.7244 13.2844C88.2733 12.4615 87.6018 11.7822 86.7868 11.32C85.944 10.8473 84.9927 10.6022 84.024 10.6162C83.0586 10.6022 82.1038 10.8438 81.2609 11.32C80.446 11.7822 79.7745 12.4615 79.3234 13.2844C78.8442 14.1633 78.6028 15.1472 78.6204 16.1486C78.6028 17.1466 78.8442 18.134 79.3234 19.0128C79.7745 19.8358 80.446 20.515 81.2609 20.9773C82.1038 21.4536 83.055 21.6951 84.024 21.6812C84.9891 21.6951 85.944 21.4536 86.7868 20.9773Z" fill="#251b29"/>
    <path d="M107.481 24.794L104.152 19.9793H100.476V24.794H96.4818V7.51025H103.952C105.32 7.47875 106.677 7.73786 107.936 8.2771C108.996 8.73229 109.902 9.48863 110.538 10.4516C111.164 11.4495 111.482 12.6085 111.451 13.785C111.482 14.9616 111.161 16.117 110.528 17.1045C109.881 18.0605 108.968 18.8028 107.901 19.2404L111.773 24.7974H107.481V24.794ZM106.47 11.5475C105.677 10.9768 104.708 10.7002 103.736 10.7702H100.479V16.7929H103.736C104.711 16.8593 105.684 16.5827 106.47 16.0015C106.785 15.7284 107.034 15.3852 107.198 15.0001C107.359 14.6149 107.432 14.1982 107.411 13.7815C107.436 13.3613 107.366 12.9412 107.202 12.556C107.041 12.1673 106.789 11.8242 106.474 11.5475H106.47Z" fill="#251b29"/>
    <path d="M127.973 21.5865V24.7974H114.605V7.51025H127.651V10.7212H118.575V14.4748H126.591V17.5877H118.575V21.5865H127.969H127.973Z" fill="#251b29"/>
    <path d="M49.1741 19.6325C48.611 20.3084 47.9046 20.8511 47.1037 21.2118C46.3902 21.527 45.6138 21.6844 44.8338 21.681C43.8371 21.6985 42.8507 21.4568 41.9729 20.9771C41.9414 20.9597 41.9135 20.9386 41.882 20.9176C41.0985 20.466 40.4515 19.8077 40.0109 19.0128C39.5316 18.1339 39.2903 17.15 39.3079 16.1486C39.2903 15.1505 39.5316 14.1631 40.0109 13.2843C40.4515 12.4929 41.0951 11.8346 41.882 11.3794C41.9135 11.3619 41.9414 11.3374 41.9729 11.3199C42.8507 10.8402 43.8335 10.5986 44.8338 10.6161C45.6172 10.6091 46.3902 10.7666 47.1072 11.0783L48.7335 8.01793C48.7335 8.01793 48.709 8.00391 48.6949 7.99691C47.4115 7.46117 46.0299 7.19156 44.6379 7.21257C43.0991 7.19506 41.5811 7.53471 40.1928 8.2C40.0772 8.25604 39.9549 8.29804 39.8395 8.36108C38.451 9.0929 37.2899 10.1959 36.4854 11.5475C35.6635 12.9376 35.2404 14.5343 35.2648 16.152C35.2404 17.7697 35.6635 19.363 36.4854 20.7566C37.2899 22.1046 38.451 23.2076 39.8395 23.9394C39.9549 24.0025 40.0772 24.0444 40.1928 24.1005C41.5707 24.7623 43.0815 25.1019 44.61 25.088C46.0054 25.109 47.3905 24.8393 48.6775 24.2967C48.6949 24.2896 48.709 24.2791 48.7264 24.2721C49.8946 23.7644 50.9263 22.9871 51.7342 21.9996L49.1706 19.629L49.1741 19.6325Z" fill="#251b29"/>
    <path d="M53.9656 15.6549L50.4751 15.6689C50.5241 16.5478 50.3738 17.4266 50.0345 18.2391C49.7231 18.9569 49.265 19.6011 48.6915 20.1298C48.4082 20.4029 48.1038 20.6516 47.7716 20.8581C48.2087 21.9682 48.5935 23.0011 48.8034 24.1846C49.5764 23.768 50.3142 23.4389 50.9578 22.8295C51.9931 21.8912 52.7135 20.6971 53.287 19.4225C53.2941 19.4051 53.2975 19.3875 53.3046 19.3735C53.8152 18.2041 54.0426 16.933 53.9621 15.6584L53.9656 15.6549Z" fill="#251b29"/>
    <path d="M53.9831 15.2312L53.9656 15.6549L52.2554 18.7327H43.2179L45.0471 15.2312H53.9831Z" fill="#251b29"/>

    <path d="M136 7.25005H143.375C145.225 7.25005 146.867 7.61671 148.3 8.35005C149.733 9.08338 150.842 10.1167 151.625 11.45C152.425 12.7667 152.825 14.2834 152.825 16C152.825 17.7167 152.425 19.2417 151.625 20.575C150.842 21.8917 149.733 22.9167 148.3 23.65C146.867 24.3834 145.225 24.75 143.375 24.75H136V7.25005ZM143.225 22.575C144.642 22.575 145.883 22.3 146.95 21.75C148.033 21.2 148.867 20.4334 149.45 19.45C150.033 18.45 150.325 17.3 150.325 16C150.325 14.7 150.033 13.5584 149.45 12.575C148.867 11.575 148.033 10.8 146.95 10.25C145.883 9.70005 144.642 9.42505 143.225 9.42505H138.5V22.575H143.225Z" fill="#251b29"/>
    <path d="M165.054 24.9501C163.288 24.9501 161.696 24.5667 160.279 23.8C158.863 23.0167 157.746 21.9417 156.929 20.575C156.129 19.2084 155.729 17.6834 155.729 16C155.729 14.3167 156.129 12.7917 156.929 11.425C157.746 10.0584 158.863 8.99172 160.279 8.22505C161.696 7.44172 163.288 7.05005 165.054 7.05005C166.804 7.05005 168.388 7.44172 169.804 8.22505C171.221 8.99172 172.329 10.0584 173.129 11.425C173.929 12.775 174.329 14.3 174.329 16C174.329 17.7 173.929 19.2334 173.129 20.6C172.329 21.95 171.221 23.0167 169.804 23.8C168.388 24.5667 166.804 24.9501 165.054 24.9501ZM165.054 22.725C166.338 22.725 167.488 22.4334 168.504 21.85C169.538 21.2667 170.346 20.4667 170.929 19.45C171.529 18.4167 171.829 17.2667 171.829 16C171.829 14.7334 171.529 13.5917 170.929 12.575C170.346 11.5417 169.538 10.7334 168.504 10.15C167.488 9.56671 166.338 9.27505 165.054 9.27505C163.771 9.27505 162.604 9.56671 161.554 10.15C160.521 10.7334 159.704 11.5417 159.104 12.575C158.521 13.5917 158.229 14.7334 158.229 16C158.229 17.2667 158.521 18.4167 159.104 19.45C159.704 20.4667 160.521 21.2667 161.554 21.85C162.604 22.4334 163.771 22.725 165.054 22.725Z" fill="#251b29"/>
    <path d="M186.475 24.9501C184.725 24.9501 183.142 24.5667 181.725 23.8C180.325 23.0167 179.225 21.95 178.425 20.6C177.625 19.2334 177.225 17.7 177.225 16C177.225 14.3 177.625 12.775 178.425 11.425C179.225 10.0584 180.334 8.99172 181.75 8.22505C183.167 7.44172 184.75 7.05005 186.5 7.05005C187.867 7.05005 189.117 7.28338 190.25 7.75005C191.384 8.20005 192.35 8.87505 193.15 9.77505L191.525 11.35C190.209 9.96671 188.567 9.27505 186.6 9.27505C185.3 9.27505 184.125 9.56671 183.075 10.15C182.025 10.7334 181.2 11.5417 180.6 12.575C180.017 13.5917 179.725 14.7334 179.725 16C179.725 17.2667 180.017 18.4167 180.6 19.45C181.2 20.4667 182.025 21.2667 183.075 21.85C184.125 22.4334 185.3 22.725 186.6 22.725C188.55 22.725 190.192 22.025 191.525 20.625L193.15 22.2C192.35 23.1 191.375 23.7834 190.225 24.25C189.092 24.7167 187.842 24.9501 186.475 24.9501Z" fill="#251b29"/>
    <path d="M202.244 24.9501C200.927 24.9501 199.652 24.75 198.419 24.35C197.202 23.9334 196.244 23.4 195.544 22.75L196.469 20.8C197.135 21.4 197.985 21.8917 199.019 22.275C200.069 22.6417 201.144 22.825 202.244 22.825C203.694 22.825 204.777 22.5834 205.494 22.1C206.21 21.6 206.569 20.9417 206.569 20.125C206.569 19.525 206.369 19.0417 205.969 18.675C205.585 18.2917 205.102 18 204.519 17.8C203.952 17.6 203.144 17.375 202.094 17.125C200.777 16.8084 199.71 16.4917 198.894 16.175C198.094 15.8584 197.402 15.375 196.819 14.725C196.252 14.0584 195.969 13.1667 195.969 12.05C195.969 11.1167 196.21 10.275 196.694 9.52505C197.194 8.77505 197.944 8.17505 198.944 7.72505C199.944 7.27505 201.185 7.05005 202.669 7.05005C203.702 7.05005 204.719 7.18338 205.719 7.45005C206.719 7.71671 207.577 8.10005 208.294 8.60005L207.469 10.6C206.735 10.1334 205.952 9.78338 205.119 9.55005C204.285 9.30005 203.469 9.17505 202.669 9.17505C201.252 9.17505 200.185 9.43338 199.469 9.95005C198.769 10.4667 198.419 11.1334 198.419 11.95C198.419 12.55 198.619 13.0417 199.019 13.425C199.419 13.7917 199.91 14.0834 200.494 14.3C201.094 14.5 201.902 14.7167 202.919 14.95C204.235 15.2667 205.294 15.5834 206.094 15.9C206.894 16.2167 207.577 16.7 208.144 17.35C208.727 18 209.019 18.875 209.019 19.975C209.019 20.8917 208.769 21.7334 208.269 22.5C207.769 23.25 207.01 23.85 205.994 24.3C204.977 24.7334 203.727 24.9501 202.244 24.9501Z" fill="#251b29"/>

</svg>