<svg width="40" height="40" viewBox="0 0 40 40" fill="none" xmlns="http://www.w3.org/2000/svg">
    <path d="M5 31.6667C5 32.5507 5.35119 33.3986 5.97631 34.0237C6.60143 34.6488 7.44928 35 8.33333 35" stroke="#251B29" stroke-width="2" stroke-linecap="round" stroke-linejoin="round"/>
    <path d="M5 8.33334V31.6667" stroke="#251B29" stroke-width="2" stroke-linecap="round" stroke-linejoin="round"/>
    <path d="M15 35H8.33334" stroke="#251B29" stroke-width="2" stroke-linecap="round" stroke-linejoin="round"/>
    <path d="M35 8.33333C35 7.44928 34.6488 6.60143 34.0237 5.97631C33.3986 5.35119 32.5507 5 31.6667 5" stroke="#251B29" stroke-width="2" stroke-linecap="round" stroke-linejoin="round"/>
    <path d="M35 13.3333V8.33334" stroke="#251B29" stroke-width="2" stroke-linecap="round" stroke-linejoin="round"/>
    <path d="M8.33334 5H31.6667" stroke="#251B29" stroke-width="2" stroke-linecap="round" stroke-linejoin="round"/>
    <path d="M5 8.33333C5 7.44928 5.35119 6.60143 5.97631 5.97631C6.60143 5.35119 7.44928 5 8.33333 5" stroke="#251B29" stroke-width="2" stroke-linecap="round" stroke-linejoin="round"/>
    <path d="M14.1667 28.4367C13.5036 28.4367 12.8677 28.1733 12.3989 27.7044C11.9301 27.2356 11.6667 26.5997 11.6667 25.9367V25.9367C11.6667 25.2736 11.9301 24.6377 12.3989 24.1689C12.8677 23.7001 13.5036 23.4367 14.1667 23.4367V23.4367C14.8297 23.4367 15.4656 23.7001 15.9344 24.1689C16.4033 24.6377 16.6667 25.2736 16.6667 25.9367V25.9367C16.6667 26.5997 16.4033 27.2356 15.9344 27.7044C15.4656 28.1733 14.8297 28.4367 14.1667 28.4367V28.4367Z" stroke="#251B29" stroke-width="2" stroke-linecap="round" stroke-linejoin="round"/>
    <path d="M11.6667 11.77H25" stroke="#251B29" stroke-width="2" stroke-linecap="round" stroke-linejoin="round"/>
    <path d="M11.6667 17.6033H20" stroke="#251B29" stroke-width="2" stroke-linecap="round" stroke-linejoin="round"/>
    <path d="M22.5 34.1667V33.49C22.5026 32.5652 22.8712 31.679 23.5251 31.0251C24.179 30.3712 25.0652 30.0026 25.99 30H31.51C32.4348 30.0026 33.321 30.3712 33.9749 31.0251C34.6288 31.679 34.9974 32.5652 35 33.49V34.1667C35 34.3877 34.9122 34.5996 34.7559 34.7559C34.5996 34.9122 34.3877 35 34.1667 35H23.3333C23.1123 35 22.9004 34.9122 22.7441 34.7559C22.5878 34.5996 22.5 34.3877 22.5 34.1667Z" stroke="#251B29" stroke-width="2" stroke-linecap="round" stroke-linejoin="round"/>
    <path d="M25.4167 22.4867C25.4193 21.828 25.617 21.1848 25.9849 20.6384C26.3528 20.092 26.8743 19.6668 27.4836 19.4166C28.0929 19.1663 28.7627 19.1022 29.4084 19.2323C30.0542 19.3625 30.6469 19.681 31.1117 20.1477C31.5765 20.6144 31.8927 21.2083 32.0202 21.8546C32.1478 22.5008 32.081 23.1704 31.8283 23.7787C31.5756 24.387 31.1484 24.9068 30.6005 25.2725C30.0526 25.6382 29.4087 25.8333 28.75 25.8333C28.3111 25.8333 27.8766 25.7467 27.4713 25.5783C27.066 25.41 26.698 25.1633 26.3883 24.8523C26.0785 24.5414 25.8333 24.1723 25.6666 23.7664C25.4998 23.3604 25.4149 22.9255 25.4167 22.4867V22.4867Z" stroke="#251B29" stroke-width="2" stroke-linecap="round" stroke-linejoin="round"/>
</svg>
