<svg width="32" height="32" viewBox="0 0 32 32" fill="none" xmlns="http://www.w3.org/2000/svg">
<path d="M4 25.3333C4 26.0406 4.28095 26.7188 4.78105 27.2189C5.28115 27.719 5.95942 28 6.66667 28" stroke="#5D40BF" stroke-width="2" stroke-linecap="round" stroke-linejoin="round"/>
<path d="M4 6.66667V25.3333" stroke="#5D40BF" stroke-width="2" stroke-linecap="round" stroke-linejoin="round"/>
<path d="M12 28H6.66667" stroke="#5D40BF" stroke-width="2" stroke-linecap="round" stroke-linejoin="round"/>
<path d="M28 6.66667C28 5.95942 27.719 5.28115 27.2189 4.78105C26.7188 4.28095 26.0406 4 25.3333 4" stroke="#5D40BF" stroke-width="2" stroke-linecap="round" stroke-linejoin="round"/>
<path d="M28 10.6667V6.66667" stroke="#5D40BF" stroke-width="2" stroke-linecap="round" stroke-linejoin="round"/>
<path d="M6.66667 4H25.3333" stroke="#5D40BF" stroke-width="2" stroke-linecap="round" stroke-linejoin="round"/>
<path d="M4 6.66667C4 5.95942 4.28095 5.28115 4.78105 4.78105C5.28115 4.28095 5.95942 4 6.66667 4" stroke="#5D40BF" stroke-width="2" stroke-linecap="round" stroke-linejoin="round"/>
<path d="M11.3333 22.7493C10.8029 22.7493 10.2942 22.5386 9.91911 22.1635C9.54404 21.7885 9.33333 21.2798 9.33333 20.7493V20.7493C9.33333 20.2189 9.54404 19.7102 9.91911 19.3351C10.2942 18.96 10.8029 18.7493 11.3333 18.7493V18.7493C11.8638 18.7493 12.3725 18.96 12.7475 19.3351C13.1226 19.7102 13.3333 20.2189 13.3333 20.7493V20.7493C13.3333 21.2798 13.1226 21.7885 12.7475 22.1635C12.3725 22.5386 11.8638 22.7493 11.3333 22.7493V22.7493Z" stroke="#5D40BF" stroke-width="2" stroke-linecap="round" stroke-linejoin="round"/>
<path d="M9.33333 9.416H20" stroke="#5D40BF" stroke-width="2" stroke-linecap="round" stroke-linejoin="round"/>
<path d="M9.33333 14.0827H16" stroke="#5D40BF" stroke-width="2" stroke-linecap="round" stroke-linejoin="round"/>
<path d="M18 27.3333V26.792C18.0021 26.0522 18.2969 25.3432 18.8201 24.8201C19.3432 24.2969 20.0522 24.0021 20.792 24H25.208C25.9478 24.0021 26.6568 24.2969 27.1799 24.8201C27.7031 25.3432 27.9979 26.0522 28 26.792V27.3333C28 27.5101 27.9298 27.6797 27.8047 27.8047C27.6797 27.9298 27.5101 28 27.3333 28H18.6667C18.4899 28 18.3203 27.9298 18.1953 27.8047C18.0702 27.6797 18 27.5101 18 27.3333Z" stroke="#5D40BF" stroke-width="2" stroke-linecap="round" stroke-linejoin="round"/>
<path d="M20.3333 17.9893C20.3354 17.4624 20.4936 16.9479 20.7879 16.5107C21.0822 16.0736 21.4994 15.7335 21.9869 15.5333C22.4743 15.3331 23.0102 15.2818 23.5267 15.3859C24.0433 15.49 24.5175 15.7448 24.8894 16.1181C25.2612 16.4915 25.5141 16.9667 25.6162 17.4837C25.7182 18.0007 25.6648 18.5363 25.4626 19.0229C25.2605 19.5096 24.9187 19.9254 24.4804 20.218C24.0421 20.5105 23.527 20.6667 23 20.6667C22.6489 20.6667 22.3013 20.5973 21.977 20.4627C21.6528 20.328 21.3584 20.1306 21.1106 19.8818C20.8628 19.6331 20.6666 19.3379 20.5333 19.0131C20.3999 18.6883 20.3319 18.3404 20.3333 17.9893V17.9893Z" stroke="#5D40BF" stroke-width="2" stroke-linecap="round" stroke-linejoin="round"/>
</svg>
