<svg width="32" height="32" viewBox="0 0 32 32" fill="none" xmlns="http://www.w3.org/2000/svg">
<path d="M5.18404 19.0413H5.26137C9.0387 19.0413 11.5574 18.8253 11.5574 15.264C11.5574 11.4867 15.3347 11.4867 15.3347 8.96801C15.3347 6.15201 10.2974 6.44934 10.2974 3.93068V3.84001" stroke="#5D40BF" stroke-width="2" stroke-linecap="round" stroke-linejoin="round"/>
<path d="M26.6661 13.9999H22.5755C19.7688 13.9999 18.2795 10.6839 20.1435 8.58528L22.8515 5.53728" stroke="#5D40BF" stroke-width="2" stroke-linecap="round" stroke-linejoin="round"/>
<path d="M21.3333 18.6654C19.124 18.6654 17.3333 20.456 17.3333 22.6654C15.86 22.6654 14.6667 23.8587 14.6667 25.332C14.6667 26.8054 15.86 27.9987 17.3333 27.9987H24.6667C26.508 27.9987 28 26.5054 28 24.6654C28 22.9787 26.7427 21.5987 25.1173 21.3774C24.5813 19.8014 23.0907 18.6654 21.3333 18.6654V18.6654Z" stroke="#5D40BF" stroke-width="2" stroke-linecap="round" stroke-linejoin="round"/>
<path d="M26.6669 14C26.6669 7.74 21.5935 2.66667 15.3335 2.66667C9.07355 2.66667 4.00021 7.74 4.00021 14C4.00021 18.1573 6.24421 21.78 9.58021 23.7533" stroke="#5D40BF" stroke-width="2" stroke-linecap="round" stroke-linejoin="round"/>
</svg>
