<svg width="40" height="40" viewBox="0 0 40 40" fill="none" xmlns="http://www.w3.org/2000/svg">
    <path d="M6.48004 23.8017H6.57671C11.2984 23.8017 14.4467 23.5317 14.4467 19.08C14.4467 14.3583 19.1684 14.3583 19.1684 11.21C19.1684 7.69002 12.8717 8.06168 12.8717 4.91335V4.80002" stroke="#251B29" stroke-width="2" stroke-linecap="round" stroke-linejoin="round"/>
    <path d="M33.3327 17.4999H28.2193C24.711 17.4999 22.8493 13.3549 25.1793 10.7316L28.5643 6.9216" stroke="#251B29" stroke-width="2" stroke-linecap="round" stroke-linejoin="round"/>
    <path d="M26.6667 23.3317C23.905 23.3317 21.6667 25.5701 21.6667 28.3317C19.825 28.3317 18.3333 29.8234 18.3333 31.6651C18.3333 33.5067 19.825 34.9984 21.6667 34.9984H30.8333C33.135 34.9984 35 33.1317 35 30.8317C35 28.7234 33.4283 26.9984 31.3967 26.7217C30.7267 24.7517 28.8633 23.3317 26.6667 23.3317V23.3317Z" stroke="#251B29" stroke-width="2" stroke-linecap="round" stroke-linejoin="round"/>
    <path d="M33.3336 17.5C33.3336 9.67501 26.9919 3.33334 19.1669 3.33334C11.3419 3.33334 5.00027 9.67501 5.00027 17.5C5.00027 22.6967 7.80527 27.225 11.9753 29.6917" stroke="#251B29" stroke-width="2" stroke-linecap="round" stroke-linejoin="round"/>
</svg>
