<svg width="40" height="40" viewBox="0 0 40 40" fill="none" xmlns="http://www.w3.org/2000/svg">
<path d="M33.3336 18.7366C33.3336 26.0166 28.072 32.84 20.867 34.88C20.3037 35.04 19.697 35.04 19.1337 34.88C11.9287 32.8416 6.66699 26.0166 6.66699 18.7366V12.0233C6.66699 10.67 7.48533 9.44998 8.73866 8.93831L16.8453 5.62165C18.8687 4.79331 21.1353 4.79331 23.157 5.62165L31.2636 8.93831C32.5153 9.44998 33.3336 10.67 33.3336 12.0233V18.7366Z" stroke="#251B29" stroke-width="2" stroke-linecap="round" stroke-linejoin="round"/>
<path d="M15.8262 13.4732C18.1042 11.1952 21.7977 11.1952 24.0758 13.4732C26.3538 15.7513 26.3538 19.4448 24.0758 21.7228C21.7977 24.0009 18.1042 24.0009 15.8262 21.7228C13.5481 19.4448 13.5481 15.7513 15.8262 13.4732Z" stroke="#251B29" stroke-width="2" stroke-linecap="round" stroke-linejoin="round"/>
<path d="M18.009 17.598L21.8923 17.598" stroke="#251B29" stroke-width="2" stroke-linecap="round" stroke-linejoin="round"/>
<path d="M19.9506 15.6563L19.9506 19.5397" stroke="#251B29" stroke-width="2" stroke-linecap="round" stroke-linejoin="round"/>
<path d="M14.9506 26.2603C16.3439 27.3103 18.0714 27.9411 19.9506 27.9411C21.8298 27.9411 23.5573 27.3103 24.9506 26.2603" stroke="#251B29" stroke-width="2" stroke-linecap="round" stroke-linejoin="round"/>
</svg>
