<svg width="40" height="40" viewBox="0 0 40 40" fill="none" xmlns="http://www.w3.org/2000/svg">
    <path d="M31.6666 15V8.33333C29.1666 8.61111 23.3333 8.33333 20 5C16.6666 8.33333 10.8333 8.61111 8.33331 8.33333V23.3333C8.33331 26.9851 11.8338 30.1368 15 32.2405" stroke="#251B29" stroke-width="2" stroke-linecap="round" stroke-linejoin="round"/>
    <path d="M36.6667 28.3333C36.6667 32.9357 32.9357 36.6667 28.3333 36.6667M36.6667 28.3333C36.6667 23.731 32.9357 20 28.3333 20M36.6667 28.3333H31.6667C30.7462 28.3333 30 29.0795 30 30V30.2705C30 31.0416 29.3749 31.6667 28.6038 31.6667V31.6667C27.6508 31.6667 26.9779 32.6003 27.2792 33.5044L28.3333 36.6667M28.3333 36.6667C23.731 36.6667 20 32.9357 20 28.3333C20 27.1482 20.2474 26.0208 20.6934 25M28.3333 20V23.7639C28.3333 24.5215 27.9053 25.214 27.2278 25.5528L25 26.6667L20.6934 25M28.3333 20C24.9161 20 21.9793 22.0568 20.6934 25" stroke="#251B29" stroke-width="2" stroke-linecap="round" stroke-linejoin="round"/>
</svg>
