<svg width="32" height="32" viewBox="0 0 32 32" fill="none" xmlns="http://www.w3.org/2000/svg">
<path d="M25.3333 12V6.66667C23.3333 6.88889 18.6667 6.66667 16 4C13.3333 6.66667 8.66667 6.88889 6.66667 6.66667V18.6667C6.66667 21.5881 9.4671 24.1095 12 25.7924" stroke="#5D40BF" stroke-width="2" stroke-linecap="round" stroke-linejoin="round"/>
<path d="M29.3333 22.6667C29.3333 26.3485 26.3485 29.3333 22.6667 29.3333M29.3333 22.6667C29.3333 18.9848 26.3485 16 22.6667 16M29.3333 22.6667H25.3333C24.5969 22.6667 24 23.2636 24 24V24.2164C24 24.8332 23.4999 25.3333 22.8831 25.3333C22.1207 25.3333 21.5823 26.0803 21.8233 26.8035L22.6667 29.3333M22.6667 29.3333C18.9848 29.3333 16 26.3485 16 22.6667C16 21.7185 16.1979 20.8167 16.5547 20M22.6667 16V18.3519C22.6667 19.362 22.096 20.2853 21.1925 20.7371L20 21.3333L16.5547 20M22.6667 16C19.9329 16 17.5835 17.6455 16.5547 20" stroke="#5D40BF" stroke-width="2" stroke-linecap="round" stroke-linejoin="round"/>
</svg>
