<svg width="32" height="33" viewBox="0 0 32 33" fill="none" xmlns="http://www.w3.org/2000/svg">
<g id="products-inference-at-the-edge-32px">
<path id="Vector" d="M29.3332 16.25C29.3332 23.6138 23.3636 29.5833 15.9998 29.5833C8.63604 29.5833 2.6665 23.6138 2.6665 16.25M29.3332 16.25C29.3332 8.8862 23.3636 2.91667 15.9998 2.91667C8.63604 2.91667 2.6665 8.8862 2.6665 16.25M29.3332 16.25C29.3332 13.6684 24.5222 11.5315 18.2143 11.1187M29.3332 16.25C29.3332 18.0519 26.9672 19.6227 23.4072 20.5575M2.6665 16.25C2.6665 18.8316 7.47744 20.9685 13.7854 21.3813M2.6665 16.25C2.6665 14.4481 5.03243 12.8773 8.59243 11.9425M18.9628 21.4352C18.9628 22.6625 17.9679 23.6574 16.7406 23.6574C15.5133 23.6574 14.5184 22.6625 14.5184 21.4352C14.5184 20.2079 15.5133 19.213 16.7406 19.213C17.9679 19.213 18.9628 20.2079 18.9628 21.4352ZM17.4813 11.0648C17.4813 12.2921 16.4864 13.287 15.2591 13.287C14.0318 13.287 13.0369 12.2921 13.0369 11.0648C13.0369 9.83752 14.0318 8.84259 15.2591 8.84259C16.4864 8.84259 17.4813 9.83752 17.4813 11.0648Z" stroke="#150C18" stroke-width="2" stroke-linecap="round" stroke-linejoin="round"/>
</g>
</svg>
