<svg xmlns="http://www.w3.org/2000/svg" width="40" height="40" fill="none" viewBox="0 0 40 40"><path fill="#fff" fill-rule="evenodd" d="M20 2.5a17.5 17.5 0 0 0-5.537 34.1c.875.162 1.25-.375 1.25-.838v-2.975c-4.863 1.05-5.888-2.35-5.888-2.35A4.638 4.638 0 0 0 7.8 27.875c-1.587-1.075.125-1.063.125-1.063a3.676 3.676 0 0 1 2.675 1.813 3.75 3.75 0 0 0 5.1 1.45 3.663 3.663 0 0 1 1.1-2.338c-3.875-.45-7.962-1.95-7.962-8.65a6.75 6.75 0 0 1 1.8-4.7 6.25 6.25 0 0 1 .175-4.625s1.462-.475 4.812 1.788a16.625 16.625 0 0 1 8.75 0c3.337-2.263 4.8-1.788 4.8-1.788a6.25 6.25 0 0 1 .175 4.625 6.75 6.75 0 0 1 1.8 4.7c0 6.725-4.087 8.2-7.987 8.638a4.163 4.163 0 0 1 1.187 3.237v4.8c0 .575.313 1.013 1.25.838A17.5 17.5 0 0 0 20 2.5Z" clip-rule="evenodd"/></svg>