<svg width="40" height="40" viewBox="0 0 40 40" fill="none" xmlns="http://www.w3.org/2000/svg">
<path d="M35 29.0163V10.317L20 3L5 10.317V29.0163L20 36.3333L35 29.0163Z" stroke="#251B29" stroke-width="2" stroke-miterlimit="10" stroke-linecap="round" stroke-linejoin="round"/>
<path d="M24.6221 24.0826C24.9655 24.426 25.5224 24.426 25.8658 24.0825L29.7425 20.2059C29.9378 20.0106 29.9378 19.694 29.7425 19.4988L25.8659 15.622C25.5224 15.2785 24.9655 15.2785 24.622 15.622C24.2785 15.9655 24.2785 16.5225 24.622 16.866L27.6086 19.8523L24.622 22.8386C24.2785 23.1821 24.2785 23.7391 24.6221 24.0826Z" fill="#251B29"/>
<path d="M15.474 24.0826C15.1305 24.426 14.5737 24.426 14.2302 24.0825L10.3535 20.2059C10.1583 20.0106 10.1583 19.694 10.3535 19.4988L14.2301 15.622C14.5736 15.2785 15.1305 15.2785 15.474 15.622C15.8176 15.9655 15.8176 16.5225 15.474 16.866L12.4875 19.8523L15.474 22.8386C15.8175 23.1821 15.8175 23.7391 15.474 24.0826Z" fill="#251B29"/>
<path d="M18 27L21.4509 14.121" stroke="#251B29" stroke-width="2" stroke-linecap="round" stroke-linejoin="round"/>
</svg>
