<svg width="32" height="32" viewBox="0 0 32 32" fill="none" xmlns="http://www.w3.org/2000/svg">
<path d="M4 28C4 27.2928 4.28095 26.6145 4.78105 26.1144C5.28115 25.6143 5.95942 25.3333 6.66667 25.3333H25.3333C26.0406 25.3333 26.7189 25.6143 27.219 26.1144C27.719 26.6145 28 27.2928 28 28M28 4C28 4.70724 27.719 5.38552 27.219 5.88562C26.7189 6.38571 26.0406 6.66667 25.3333 6.66667H6.66667C5.95942 6.66667 5.28115 6.38571 4.78105 5.88562C4.28095 5.38552 4 4.70724 4 4" stroke="#251B29" stroke-width="2" stroke-miterlimit="10" stroke-linecap="round" stroke-linejoin="round"/>
<path d="M12.2636 15.1496C10.7636 15.1496 9.54688 16.3664 9.54688 17.867C9.54688 19.3677 10.7636 20.5837 12.2636 20.5837H19.7354C21.2361 20.5837 22.4528 19.367 22.4528 17.867C22.4528 16.3671 21.2361 15.1503 19.7361 15.1503C19.7361 13.0868 18.0634 11.4141 15.9999 11.4141C13.9363 11.4141 12.2636 13.0861 12.2636 15.1496Z" stroke="#251B29" stroke-width="2" stroke-linecap="round" stroke-linejoin="round"/>
</svg>
