<svg width="40" height="40" viewBox="0 0 40 40" fill="none" xmlns="http://www.w3.org/2000/svg">
<path d="M20 35C28.2842 35 35 28.2842 35 20C35 11.7157 28.2842 5 20 5C11.7157 5 5 11.7157 5 20C5 28.2842 11.7157 35 20 35Z" stroke="#251B29" stroke-width="2" stroke-linecap="round" stroke-linejoin="round"/>
<path d="M20.8325 28.3334C22.2133 28.3334 23.3325 27.214 23.3325 25.8334C23.3325 24.4526 22.2133 23.3334 20.8325 23.3334C19.4518 23.3334 18.3325 24.4526 18.3325 25.8334C18.3325 27.214 19.4518 28.3334 20.8325 28.3334Z" stroke="#251B29" stroke-width="2" stroke-linecap="round" stroke-linejoin="round"/>
<path d="M17.5087 25.7728C10.4123 25.3084 5 22.9043 5 20" stroke="#251B29" stroke-width="2" stroke-linecap="round" stroke-linejoin="round"/>
<path d="M19.1675 16.6666C20.5482 16.6666 21.6675 15.5473 21.6675 14.1666C21.6675 12.786 20.5482 11.6666 19.1675 11.6666C17.7867 11.6666 16.6675 12.786 16.6675 14.1666C16.6675 15.5473 17.7867 16.6666 19.1675 16.6666Z" stroke="#251B29" stroke-width="2" stroke-linecap="round" stroke-linejoin="round"/>
<path d="M22.4902 14.2273C29.5866 14.6917 34.999 17.0958 34.999 20" stroke="#251B29" stroke-width="2" stroke-linecap="round" stroke-linejoin="round"/>
<path d="M34.9991 20C34.9991 22.0271 32.3375 23.7942 28.3325 24.8459" stroke="#251B29" stroke-width="2" stroke-linecap="round" stroke-linejoin="round"/>
<path d="M11.6667 15.1541C7.66166 16.2058 5 17.9729 5 20.0001" stroke="#251B29" stroke-width="2" stroke-linecap="round" stroke-linejoin="round"/>
</svg>
