<svg width="32" height="32" viewBox="0 0 32 32" fill="none" xmlns="http://www.w3.org/2000/svg">
<path d="M26.6669 14.9893C26.6669 20.8133 22.4576 26.272 16.6936 27.904C16.2429 28.032 15.7576 28.032 15.3069 27.904C9.54292 26.2733 5.33359 20.8133 5.33359 14.9893V9.61867C5.33359 8.536 5.98825 7.56 6.99092 7.15067L13.4763 4.49734C15.0949 3.83467 16.9082 3.83467 18.5256 4.49734L25.0109 7.15067C26.0122 7.56 26.6669 8.536 26.6669 9.61867V14.9893Z" stroke="#5D40BF" stroke-width="2" stroke-linecap="round" stroke-linejoin="round"/>
<path d="M12.6609 10.7786C14.4834 8.95615 17.4382 8.95615 19.2606 10.7786C21.0831 12.601 21.0831 15.5558 19.2606 17.3783C17.4382 19.2007 14.4834 19.2007 12.6609 17.3783C10.8385 15.5558 10.8385 12.601 12.6609 10.7786Z" stroke="#5D40BF" stroke-width="2" stroke-linecap="round" stroke-linejoin="round"/>
<path d="M14.4072 14.0784L17.5138 14.0784" stroke="#5D40BF" stroke-width="2" stroke-linecap="round" stroke-linejoin="round"/>
<path d="M15.9605 12.5251L15.9605 15.6317" stroke="#5D40BF" stroke-width="2" stroke-linecap="round" stroke-linejoin="round"/>
<path d="M11.9605 21.0082C13.0751 21.8482 14.4571 22.3529 15.9605 22.3529C17.4638 22.3529 18.8458 21.8482 19.9605 21.0082" stroke="#5D40BF" stroke-width="2" stroke-linecap="round" stroke-linejoin="round"/>
</svg>
