<svg width="32" height="32" viewBox="0 0 32 32" fill="none" xmlns="http://www.w3.org/2000/svg">
<path d="M25.3333 12H16.7133C16.268 12 15.8507 11.7773 15.604 11.4067L13.7293 8.59467C13.4813 8.22267 13.0653 8 12.62 8H6.66667M25.3333 12C26.8067 12 28 13.1933 28 14.6667V25.3333C28 26.8067 26.8067 28 25.3333 28H6.66667C5.19333 28 4 26.8067 4 25.3333V10.6667C4 9.19333 5.19333 8 6.66667 8M25.3333 12L25.3333 6.66667C25.3333 5.19333 24.14 4 22.6667 4H9.33333C7.86 4 6.66667 5.19333 6.66667 6.66667L6.66667 8M13.3333 20L15.3333 22L18.6667 18.6667" stroke="#251B29" stroke-width="2" stroke-linecap="round" stroke-linejoin="round"/>
</svg>
