<svg width="32" height="32" viewBox="0 0 32 32" fill="none" xmlns="http://www.w3.org/2000/svg">
<path d="M25.4918 8.0026V24.0026C25.4918 25.4759 24.2985 26.6693 22.8251 26.6693H9.17448C7.70115 26.6693 6.50781 25.4759 6.50781 24.0026V8.0026C6.50781 6.52927 7.70115 5.33594 9.17448 5.33594H22.8265C24.2985 5.33594 25.4918 6.52927 25.4918 8.0026Z" stroke="#251B29" stroke-width="2" stroke-linecap="round" stroke-linejoin="round"/>
<path d="M25.4922 8H26.6669C28.1402 8 29.3335 9.19333 29.3335 10.6667V21.3333C29.3335 22.8067 28.1402 24 26.6669 24H25.4922" stroke="#251B29" stroke-width="2" stroke-linecap="round" stroke-linejoin="round"/>
<path d="M6.50735 24H5.33268C3.85935 24 2.66602 22.8067 2.66602 21.3333V10.6667C2.66602 9.19333 3.85935 8 5.33268 8H6.50735" stroke="#251B29" stroke-width="2" stroke-linecap="round" stroke-linejoin="round"/>
<path d="M14.5875 12.0784L19.7635 15.1397C20.4181 15.5264 20.4181 16.4744 19.7635 16.8611L14.5875 19.9224C13.9208 20.3171 13.0781 19.8357 13.0781 19.0611V12.9397C13.0781 12.1651 13.9208 11.6837 14.5875 12.0784V12.0784Z" stroke="#251B29" stroke-width="2" stroke-linecap="round" stroke-linejoin="round"/>
</svg>
