<svg width="32" height="33" viewBox="0 0 32 33" fill="none" xmlns="http://www.w3.org/2000/svg">
<path d="M13.2637 14.8496V13.8963C13.2637 12.3187 13.7463 11.0366 16.1592 11.0366C18.5721 11.0366 19.0547 12.3187 19.0547 13.8963V14.8496M28 15.2885C28 22.0157 22.8805 28.306 16 29.8333C9.1195 28.306 4 22.0157 4 15.2885V9.44561C4 8.24267 4.7365 7.15825 5.734 6.75678L13.234 3.72573C15.0535 2.98945 16.9465 2.98945 18.6355 3.6724L26.1355 6.70345C27.2635 7.15973 28 8.24267 28 9.44561V15.2885ZM18.5721 20.5689H13.7463C11.8159 20.5689 11.3333 20.0923 11.3333 18.1859V17.2326C11.3333 15.3262 11.8159 14.8496 13.7463 14.8496H18.5721C20.5024 14.8496 20.985 15.3262 20.985 17.2326V18.1859C20.985 20.0923 20.5024 20.5689 18.5721 20.5689Z" stroke="#150C18" stroke-width="2" stroke-linecap="round" stroke-linejoin="round"/>
</svg>
