<svg width="40" height="40" viewBox="0 0 40 40" fill="none" xmlns="http://www.w3.org/2000/svg">
    <path d="M35 21.8036C35 28.8348 26.2909 34.0581 22.1377 36.1552C21.4771 36.4908 20.7459 36.666 20.004 36.6667C19.2621 36.6673 18.5305 36.4933 17.8693 36.1589C13.719 34.0638 5 28.8278 5 21.8036V11.6488C5.00666 11.1889 5.18228 10.7474 5.49379 10.4071C5.80531 10.0669 6.23124 9.85157 6.69144 9.80157C10.67 9.50122 14.4844 8.09982 17.7024 5.75616C18.3664 5.26517 19.1722 5 20 5C20.8278 5 21.6335 5.26517 22.2976 5.75616C25.5155 8.09982 29.3299 9.50122 33.3085 9.80157C33.7687 9.85155 34.1946 10.0669 34.5062 10.4071C34.8177 10.7473 34.9933 11.1889 35 11.6488V21.8036Z" stroke="#251B29" stroke-width="2" stroke-linecap="round" stroke-linejoin="round"/>
    <path d="M23.3333 18.3333L19.1689 23.3333L16.6667 20.3333" stroke="#251B29" stroke-width="2" stroke-linecap="round" stroke-linejoin="round"/>
</svg>
