<svg width="24" height="24" viewBox="0 0 24 24" fill="none" xmlns="http://www.w3.org/2000/svg">
<path fill-rule="evenodd" clip-rule="evenodd" d="M16.3305 3.71109C15.2817 3.70198 14.2713 4.10515 13.5169 4.83378L13.5168 4.83373L13.51 4.84053L12.3633 5.98053C12.1022 6.24012 12.101 6.66223 12.3606 6.92334C12.6201 7.18445 13.0423 7.18568 13.3034 6.92609L14.4464 5.78967C14.949 5.30591 15.6212 5.03831 16.3189 5.04437C17.0181 5.05045 17.6869 5.3309 18.1813 5.82532C18.6757 6.31974 18.9562 6.98857 18.9623 7.68777C18.9683 8.38514 18.701 9.05706 18.2176 9.55957L16.2219 11.5552L16.2218 11.5553C15.9515 11.8258 15.6262 12.0349 15.2679 12.1685C14.9096 12.3022 14.5268 12.3572 14.1454 12.3299C13.764 12.3026 13.3929 12.1936 13.0573 12.0102C12.7218 11.8269 12.4296 11.5735 12.2005 11.2673C11.98 10.9725 11.5622 10.9123 11.2673 11.1328C10.9725 11.3533 10.9123 11.7711 11.1328 12.066C11.4764 12.5253 11.9147 12.9053 12.4181 13.1803C12.9214 13.4553 13.478 13.6189 14.0501 13.6598C14.6223 13.7008 15.1965 13.6183 15.7339 13.4178C16.2713 13.2173 16.7592 12.9037 17.1647 12.498L17.1648 12.498L19.1647 10.498L19.1648 10.4981L19.1729 10.4898C19.9015 9.73538 20.3047 8.72497 20.2956 7.67618C20.2864 6.62739 19.8658 5.62414 19.1241 4.88251C18.3825 4.14088 17.3792 3.7202 16.3305 3.71109ZM11.9502 8.34005C11.378 8.29908 10.8038 8.38163 10.2664 8.5821C9.72903 8.78255 9.24105 9.09622 8.83556 9.50183L8.83547 9.50192L6.83556 11.5018L6.83549 11.5018L6.82744 11.5101C6.0988 12.2645 5.69563 13.2749 5.70474 14.3237C5.71385 15.3725 6.13453 16.3757 6.87616 17.1174C7.6178 17.859 8.62105 18.2797 9.66983 18.2888C10.7186 18.2979 11.729 17.8947 12.4834 17.1661L12.4835 17.1662L12.4917 17.158L13.6317 16.018C13.892 15.7576 13.892 15.3355 13.6317 15.0752C13.3714 14.8148 12.9492 14.8148 12.6889 15.0752L11.5532 16.2108C11.0507 16.6942 10.3788 16.9616 9.68142 16.9555C8.98223 16.9494 8.31339 16.669 7.81897 16.1746C7.32455 15.6801 7.0441 15.0113 7.03802 14.3121C7.03196 13.6147 7.29933 12.9428 7.78269 12.4403L9.77837 10.4446L9.77845 10.4446C10.0488 10.1741 10.3741 9.96499 10.7324 9.83134C11.0907 9.6977 11.4735 9.64266 11.8549 9.66998C12.2363 9.6973 12.6074 9.80632 12.943 9.98966C13.2785 10.173 13.5707 10.4264 13.7998 10.7326C14.0203 11.0274 14.4381 11.0876 14.7329 10.8671C15.0278 10.6465 15.088 10.2288 14.8675 9.93392C14.5239 9.47462 14.0856 9.09457 13.5822 8.81957C13.0789 8.54456 12.5223 8.38103 11.9502 8.34005Z" fill="#22174A"/>
</svg>
