<svg width="32" height="32" viewBox="0 0 32 32" fill="none" xmlns="http://www.w3.org/2000/svg">
<path d="M16 28C22.6274 28 28 22.6274 28 16C28 9.37258 22.6274 4 16 4C9.37258 4 4 9.37258 4 16C4 22.6274 9.37258 28 16 28Z" stroke="#5D40BF" stroke-width="2" stroke-linecap="round" stroke-linejoin="round"/>
<path d="M16.666 22.6667C17.7706 22.6667 18.666 21.7712 18.666 20.6667C18.666 19.5621 17.7706 18.6667 16.666 18.6667C15.5614 18.6667 14.666 19.5621 14.666 20.6667C14.666 21.7712 15.5614 22.6667 16.666 22.6667Z" stroke="#5D40BF" stroke-width="2" stroke-linecap="round" stroke-linejoin="round"/>
<path d="M14.007 20.6182C8.32984 20.2467 4 18.3234 4 16" stroke="#5D40BF" stroke-width="2" stroke-linecap="round" stroke-linejoin="round"/>
<path d="M15.334 13.3333C16.4386 13.3333 17.334 12.4379 17.334 11.3333C17.334 10.2288 16.4386 9.33334 15.334 9.33334C14.2294 9.33334 13.334 10.2288 13.334 11.3333C13.334 12.4379 14.2294 13.3333 15.334 13.3333Z" stroke="#5D40BF" stroke-width="2" stroke-linecap="round" stroke-linejoin="round"/>
<path d="M17.9922 11.3818C23.6693 11.7533 27.9992 13.6766 27.9992 16" stroke="#5D40BF" stroke-width="2" stroke-linecap="round" stroke-linejoin="round"/>
<path d="M27.9993 16C27.9993 17.6217 25.87 19.0354 22.666 19.8767" stroke="#5D40BF" stroke-width="2" stroke-linecap="round" stroke-linejoin="round"/>
<path d="M9.33333 12.1232C6.12933 12.9646 4 14.3783 4 16" stroke="#5D40BF" stroke-width="2" stroke-linecap="round" stroke-linejoin="round"/>
</svg>
