<svg width="68" height="68" viewBox="0 0 68 68" fill="none" xmlns="http://www.w3.org/2000/svg">
<rect x="16" y="16" width="36" height="36" rx="18" fill="#767283" fill-opacity="0.4"/>
<path fill-rule="evenodd" clip-rule="evenodd" d="M26.7125 41.2935C26.127 40.7075 26.127 39.7573 26.7125 39.1713L39.1666 26.7066C39.7521 26.1205 40.7014 26.1205 41.287 26.7066V26.7066C41.8725 27.2926 41.8725 28.2428 41.287 28.8288L28.833 41.2935C28.2474 41.8796 27.2981 41.8796 26.7125 41.2935V41.2935Z" fill="white"/>
<path fill-rule="evenodd" clip-rule="evenodd" d="M26.7132 26.7066C27.2988 26.1206 28.2481 26.1206 28.8336 26.7066L41.2877 39.1714C41.8732 39.7574 41.8732 40.7075 41.2877 41.2936V41.2936C40.7021 41.8796 39.7528 41.8796 39.1673 41.2936L26.7132 28.8289C26.1277 28.2428 26.1277 27.2927 26.7132 26.7066V26.7066Z" fill="white"/>
</svg>
