<svg width="32" height="32" viewBox="0 0 32 32" fill="none" xmlns="http://www.w3.org/2000/svg">
<path d="M8.65039 19.3167V20.65" stroke="#5D40BF" stroke-width="2" stroke-linecap="round" stroke-linejoin="round"/>
<path d="M12.6504 19.3167V20.65" stroke="#5D40BF" stroke-width="2" stroke-linecap="round" stroke-linejoin="round"/>
<path d="M26 4H6C4.89543 4 4 4.89543 4 6V12.6667C4 13.7712 4.89543 14.6667 6 14.6667H26C27.1046 14.6667 28 13.7712 28 12.6667V6C28 4.89543 27.1046 4 26 4Z" stroke="#5D40BF" stroke-width="2" stroke-linecap="round" stroke-linejoin="round"/>
<path d="M17.334 9.35001H24.0173" stroke="#5D40BF" stroke-width="2" stroke-linecap="round" stroke-linejoin="round"/>
<path d="M8.66602 8.68332V10.0167" stroke="#5D40BF" stroke-width="2" stroke-linecap="round" stroke-linejoin="round"/>
<path d="M12.666 8.68332V10.0167" stroke="#5D40BF" stroke-width="2" stroke-linecap="round" stroke-linejoin="round"/>
<path d="M14.6667 25.3333H6C5.46957 25.3333 4.96086 25.1226 4.58579 24.7475C4.21071 24.3725 4 23.8638 4 23.3333V16.6667C4 16.1362 4.21071 15.6275 4.58579 15.2524C4.96086 14.8774 5.46957 14.6667 6 14.6667" stroke="#5D40BF" stroke-width="2" stroke-linecap="round" stroke-linejoin="round"/>
<path d="M23.3333 28.6667C22.2785 28.6667 21.2474 28.3539 20.3703 27.7678C19.4932 27.1818 18.8096 26.3489 18.406 25.3743C18.0023 24.3998 17.8967 23.3274 18.1025 22.2929C18.3083 21.2583 18.8162 20.308 19.5621 19.5621C20.308 18.8162 21.2583 18.3083 22.2929 18.1025C23.3274 17.8967 24.3998 18.0023 25.3743 18.406C26.3489 18.8096 27.1818 19.4932 27.7678 20.3703C28.3539 21.2474 28.6667 22.2785 28.6667 23.3333C28.6667 24.7478 28.1048 26.1044 27.1046 27.1046C26.1044 28.1048 24.7478 28.6667 23.3333 28.6667Z" stroke="#5D40BF" stroke-width="2" stroke-linecap="round" stroke-linejoin="round"/>
<path d="M27.1052 27.1044L23.334 23.3331V18.0081" stroke="#5D40BF" stroke-width="2" stroke-linecap="round" stroke-linejoin="round"/>
</svg>
