<svg width="32" height="32" viewBox="0 0 32 32" fill="none" xmlns="http://www.w3.org/2000/svg">
<path d="M27.5092 12.816C28.5434 13.8317 28.5434 15.4786 27.5092 16.4943C26.475 17.5101 24.7982 17.5101 23.7639 16.4943C22.7297 15.4786 22.7297 13.8317 23.7639 12.816C24.7982 11.8002 26.475 11.8002 27.5092 12.816Z" stroke="#5D40BF" stroke-width="2" stroke-linecap="round" stroke-linejoin="round"/>
<path d="M18.8831 8.17303C20.4756 9.73707 20.4756 12.2729 18.8831 13.8369C17.2906 15.401 14.7087 15.401 13.1162 13.8369C11.5238 12.2729 11.5238 9.73708 13.1162 8.17303C14.7087 6.60899 17.2906 6.60899 18.8831 8.17303" stroke="#5D40BF" stroke-width="2" stroke-linecap="round" stroke-linejoin="round"/>
<path d="M8.23574 12.816C9.26995 13.8317 9.26995 15.4786 8.23574 16.4943C7.20152 17.5101 5.52472 17.5101 4.49051 16.4943C3.45629 15.4786 3.45629 13.8317 4.49051 12.816C5.52473 11.8002 7.20152 11.8002 8.23574 12.816Z" stroke="#5D40BF" stroke-width="2" stroke-linecap="round" stroke-linejoin="round"/>
<path d="M30.3994 25.0004V23.5913C30.3994 21.8157 28.9346 20.377 27.1267 20.377H26.0781" stroke="#5D40BF" stroke-width="2" stroke-linecap="round" stroke-linejoin="round"/>
<path d="M1.59961 25.0004V23.5913C1.59961 21.8157 3.06448 20.377 4.87232 20.377H5.9209" stroke="#5D40BF" stroke-width="2" stroke-linecap="round" stroke-linejoin="round"/>
<path d="M22.9895 25V22.9416C22.9895 20.4563 20.9382 18.4416 18.4077 18.4416H13.5916C11.0611 18.4416 9.00977 20.4563 9.00977 22.9416V25" stroke="#5D40BF" stroke-width="2" stroke-linecap="round" stroke-linejoin="round"/>
</svg>
