<svg width="32" height="32" viewBox="0 0 32 32" fill="none" xmlns="http://www.w3.org/2000/svg">
<path d="M25.3327 22.6667C27.6407 21.9707 29.3327 19.8547 29.3327 17.3213C29.3327 14.224 26.8193 11.712 23.718 11.712C23.718 7.45333 20.262 4 15.9993 4C11.7367 4 8.28068 7.45333 8.28068 11.712C5.17935 11.712 2.66602 14.224 2.66602 17.3213C2.66602 19.8547 4.35802 21.9707 6.66601 22.6667" stroke="#5D40BF" stroke-width="2" stroke-linecap="round" stroke-linejoin="round"/>
<path d="M18.8242 17.8824H13.1772C11.8777 17.8824 10.8242 18.9358 10.8242 20.2353V24.9412C10.8242 26.2407 11.8777 27.2941 13.1772 27.2941H18.8242C20.1237 27.2941 21.1772 26.2407 21.1772 24.9412V20.2353C21.1772 18.9358 20.1237 17.8824 18.8242 17.8824Z" stroke="#5D40BF" stroke-width="2" stroke-linecap="round" stroke-linejoin="round"/>
<path d="M14.4473 17.8824H17.5531V20.2353C17.5531 20.3601 17.5036 20.4798 17.4153 20.5681C17.3271 20.6563 17.2074 20.7059 17.0826 20.7059H14.9179C14.793 20.7059 14.6734 20.6563 14.5851 20.5681C14.4968 20.4798 14.4473 20.3601 14.4473 20.2353V17.8824Z" stroke="#5D40BF" stroke-width="2" stroke-linecap="round" stroke-linejoin="round"/>
</svg>
