<svg width="32" height="32" viewBox="0 0 32 32" fill="none" xmlns="http://www.w3.org/2000/svg">
<path d="M5.18359 19.0413H5.26093C9.03826 19.0413 11.5569 18.8253 11.5569 15.264C11.5569 11.4867 15.3343 11.4867 15.3343 8.96799C15.3343 6.152 10.2969 6.44933 10.2969 3.93066V3.84" stroke="#5D40BF" stroke-width="2" stroke-linecap="round" stroke-linejoin="round"/>
<path d="M26.6666 13.9999H22.5759C19.7693 13.9999 18.2799 10.6839 20.1439 8.58526L22.8519 5.53726" stroke="#5D40BF" stroke-width="2" stroke-linecap="round" stroke-linejoin="round"/>
<path d="M21.3327 18.6653C19.1233 18.6653 17.3327 20.456 17.3327 22.6653C15.8593 22.6653 14.666 23.8587 14.666 25.332C14.666 26.8053 15.8593 27.9987 17.3327 27.9987H24.666C26.5073 27.9987 27.9993 26.5053 27.9993 24.6653C27.9993 22.9787 26.742 21.5987 25.1167 21.3773C24.5807 19.8013 23.09 18.6653 21.3327 18.6653V18.6653Z" stroke="#5D40BF" stroke-width="2" stroke-linecap="round" stroke-linejoin="round"/>
<path d="M26.6667 14C26.6667 7.73999 21.5933 2.66666 15.3333 2.66666C9.07333 2.66666 4 7.73999 4 14C4 18.1573 6.244 21.78 9.58 23.7533" stroke="#5D40BF" stroke-width="2" stroke-linecap="round" stroke-linejoin="round"/>
</svg>
