<svg width="200" height="34" viewBox="0 0 200 34" fill="none" xmlns="http://www.w3.org/2000/svg">
<path fill-rule="evenodd" clip-rule="evenodd" d="M34.4317 16.8831C34.4317 26.2075 26.9732 33.7664 17.7725 33.7664C14.0563 33.7664 10.6242 32.533 7.85307 30.4485C8.32739 30.7181 8.81688 30.9629 9.31971 31.1812C11.2257 32.0139 13.2792 32.4439 15.3547 32.4448C19.2203 32.4433 22.943 30.9632 25.7786 28.3007C28.6142 25.6381 30.3537 21.989 30.6496 18.0829C30.6912 17.7149 30.7141 17.3449 30.7181 16.9745C30.7181 16.5037 30.6794 15.9565 30.6322 15.4604C30.6279 15.413 30.6265 15.3649 30.625 15.3168C30.6233 15.2613 30.6213 15.2057 30.6155 15.1513L30.6022 15.1648C30.5339 14.5178 30.4607 14.0179 30.4607 14.0179H18.3711L17.432 15.7987L15.2732 19.9313H24.4077C24.0697 20.9555 23.5647 21.9151 22.9136 22.7701C22.0258 23.9478 20.8819 24.9021 19.571 25.5588C18.2599 26.2155 16.8172 26.5569 15.3548 26.5565C14.2351 26.5543 13.1246 26.3516 12.0745 25.9577C10.2388 25.2777 8.65342 24.0426 7.53297 22.4196C6.41255 20.7965 5.81106 18.8639 5.80994 16.8831C5.80991 15.6128 6.05678 14.3549 6.53642 13.1812C7.01608 12.0076 7.71917 10.9412 8.60547 10.043C9.4918 9.14468 10.544 8.43211 11.702 7.94597C12.8601 7.45983 14.1013 7.20961 15.3548 7.20958C17.3777 7.20653 19.3488 7.85781 20.9812 9.06862L22.2343 6.6926L23.7266 3.8357C21.2366 2.19031 18.3273 1.31653 15.3548 1.32136C12.7272 1.32222 10.1653 2.00607 7.90296 3.28044C10.6653 1.21846 14.0785 0 17.7725 0C26.9732 0 34.4317 7.55884 34.4317 16.8831Z" fill="white"/>
<path d="M57.2867 20.6097C56.692 21.3339 55.9438 21.9124 55.0973 22.3021C54.3407 22.639 53.5225 22.8097 52.6962 22.8029C51.6403 22.8219 50.5977 22.5623 49.6707 22.0495C49.6372 22.0306 49.6088 22.0065 49.5759 21.987C48.7458 21.502 48.0618 20.7971 47.5971 19.9481C47.0912 19.0087 46.835 17.952 46.8538 16.882C46.8353 15.812 47.0912 14.7554 47.5971 13.8159C48.0618 12.967 48.7455 12.2622 49.5753 11.7772C49.6086 11.7576 49.6372 11.7335 49.6707 11.7145C50.5977 11.2021 51.6403 10.9425 52.6962 10.9611C53.5228 10.9542 54.3419 11.1233 55.1002 11.4574L56.8196 8.18004C56.8054 8.17359 56.7927 8.16521 56.7782 8.15882C55.4209 7.57962 53.9601 7.29185 52.4877 7.31365C50.8617 7.29662 49.254 7.65793 47.7876 8.36976C47.6647 8.43017 47.5352 8.47645 47.4146 8.5422C45.9456 9.32745 44.7185 10.5073 43.8673 11.9525C42.9968 13.4435 42.55 15.1495 42.5766 16.8819C42.55 18.6146 42.9968 20.321 43.8673 21.8124C44.7188 23.257 45.9459 24.4365 47.4146 25.2217C47.5355 25.2875 47.6647 25.3339 47.7879 25.3946C49.2453 26.1049 50.8444 26.4664 52.4617 26.4512C53.9384 26.4722 55.4036 26.1841 56.7655 25.6051C56.7831 25.5972 56.7987 25.5869 56.8167 25.579C58.0534 25.0368 59.1446 24.203 59.9992 23.147L57.2867 20.6097Z" fill="white"/>
<path d="M66.1676 25.2084C64.6888 24.4219 63.4524 23.2376 62.5943 21.7858C61.7261 20.3032 61.2793 18.606 61.3036 16.8821C61.2793 15.1582 61.7261 13.4611 62.5943 11.9784C63.453 10.527 64.6891 9.34286 66.1676 8.55573C67.7464 7.71356 69.5089 7.28654 71.2928 7.31382C73.0729 7.28548 74.8313 7.71265 76.4052 8.55573C77.8797 9.34799 79.1146 10.5309 79.9782 11.9784C80.8545 13.4582 81.3063 15.1564 81.2823 16.8821C81.3063 18.6078 80.8545 20.306 79.9782 21.7858C79.1152 23.2337 77.8802 24.4168 76.4052 25.2084C74.8313 26.0523 73.0729 26.4798 71.2928 26.4513C69.5086 26.4787 67.7461 26.0514 66.1676 25.2084ZM74.2141 22.0496C75.0757 21.5553 75.7849 20.8277 76.2618 19.9482C76.7673 19.0087 77.0236 17.9521 77.0051 16.8821C77.0233 15.8121 76.7673 14.7555 76.2618 13.816C75.7849 12.9365 75.0757 12.2089 74.2141 11.7146C73.3228 11.2069 72.3151 10.9469 71.2928 10.9612C70.2707 10.9468 69.2628 11.2067 68.3717 11.7146C67.5098 12.2087 66.801 12.9364 66.324 13.816C65.8182 14.7555 65.5623 15.812 65.5808 16.8821C65.562 17.9522 65.8182 19.0087 66.324 19.9482C66.801 20.8278 67.5098 21.5554 68.3717 22.0496C69.2628 22.5579 70.2707 22.8179 71.2928 22.803C72.3151 22.8177 73.3231 22.5578 74.2141 22.0496Z" fill="white"/>
<path d="M96.0977 26.1353L92.5765 20.9812H88.6903V26.1353H84.4648V7.63169H92.3674C93.8132 7.59758 95.2497 7.8769 96.5801 8.45104C97.7014 8.93861 98.6575 9.7474 99.3317 10.7781C99.9925 11.8453 100.328 13.0865 100.297 14.3461C100.329 15.6038 99.9888 16.8425 99.3187 17.9017C98.6344 18.9237 97.6684 19.7187 96.541 20.1877L100.636 26.1353H96.0977ZM95.0279 11.9541C94.1883 11.3431 93.1642 11.0486 92.1331 11.1213H88.6903V17.571H92.1331C93.1662 17.644 94.1917 17.3443 95.0279 16.7248C95.361 16.4311 95.6234 16.064 95.7954 15.6518C95.9672 15.2395 96.0439 14.793 96.0193 14.3461C96.0465 13.897 95.971 13.4476 95.7992 13.0328C95.6271 12.618 95.3634 12.2489 95.0279 11.9541Z" fill="white"/>
<path d="M117.771 22.6984V26.1345H103.635V7.63086H117.432V11.0679H107.834V15.0853H116.311V18.4162H107.834V22.6984L117.771 22.6984Z" fill="white"/>
<path d="M126 8.25078H133.375C135.225 8.25078 136.867 8.61745 138.3 9.35078C139.733 10.0841 140.842 11.1174 141.625 12.4508C142.425 13.7674 142.825 15.2841 142.825 17.0008C142.825 18.7174 142.425 20.2424 141.625 21.5758C140.842 22.8924 139.733 23.9174 138.3 24.6508C136.867 25.3841 135.225 25.7508 133.375 25.7508H126V8.25078ZM133.225 23.5758C134.642 23.5758 135.883 23.3008 136.95 22.7508C138.033 22.2008 138.867 21.4341 139.45 20.4508C140.033 19.4508 140.325 18.3008 140.325 17.0008C140.325 15.7008 140.033 14.5591 139.45 13.5758C138.867 12.5758 138.033 11.8008 136.95 11.2508C135.883 10.7008 134.642 10.4258 133.225 10.4258H128.5V23.5758H133.225Z" fill="white" fill-opacity="0.72"/>
<path d="M155.054 25.9508C153.288 25.9508 151.696 25.5674 150.279 24.8008C148.863 24.0174 147.746 22.9424 146.929 21.5758C146.129 20.2091 145.729 18.6841 145.729 17.0008C145.729 15.3174 146.129 13.7924 146.929 12.4258C147.746 11.0591 148.863 9.99245 150.279 9.22578C151.696 8.44245 153.288 8.05078 155.054 8.05078C156.804 8.05078 158.388 8.44245 159.804 9.22578C161.221 9.99245 162.329 11.0591 163.129 12.4258C163.929 13.7758 164.329 15.3008 164.329 17.0008C164.329 18.7008 163.929 20.2341 163.129 21.6008C162.329 22.9508 161.221 24.0174 159.804 24.8008C158.388 25.5674 156.804 25.9508 155.054 25.9508ZM155.054 23.7258C156.338 23.7258 157.488 23.4341 158.504 22.8508C159.538 22.2674 160.346 21.4674 160.929 20.4508C161.529 19.4174 161.829 18.2674 161.829 17.0008C161.829 15.7341 161.529 14.5924 160.929 13.5758C160.346 12.5424 159.538 11.7341 158.504 11.1508C157.488 10.5674 156.338 10.2758 155.054 10.2758C153.771 10.2758 152.604 10.5674 151.554 11.1508C150.521 11.7341 149.704 12.5424 149.104 13.5758C148.521 14.5924 148.229 15.7341 148.229 17.0008C148.229 18.2674 148.521 19.4174 149.104 20.4508C149.704 21.4674 150.521 22.2674 151.554 22.8508C152.604 23.4341 153.771 23.7258 155.054 23.7258Z" fill="white" fill-opacity="0.72"/>
<path d="M176.475 25.9508C174.725 25.9508 173.142 25.5674 171.725 24.8008C170.325 24.0174 169.225 22.9508 168.425 21.6008C167.625 20.2341 167.225 18.7008 167.225 17.0008C167.225 15.3008 167.625 13.7758 168.425 12.4258C169.225 11.0591 170.334 9.99245 171.75 9.22578C173.167 8.44245 174.75 8.05078 176.5 8.05078C177.867 8.05078 179.117 8.28411 180.25 8.75078C181.384 9.20078 182.35 9.87578 183.15 10.7758L181.525 12.3508C180.209 10.9674 178.567 10.2758 176.6 10.2758C175.3 10.2758 174.125 10.5674 173.075 11.1508C172.025 11.7341 171.2 12.5424 170.6 13.5758C170.017 14.5924 169.725 15.7341 169.725 17.0008C169.725 18.2674 170.017 19.4174 170.6 20.4508C171.2 21.4674 172.025 22.2674 173.075 22.8508C174.125 23.4341 175.3 23.7258 176.6 23.7258C178.55 23.7258 180.192 23.0258 181.525 21.6258L183.15 23.2008C182.35 24.1008 181.375 24.7841 180.225 25.2508C179.092 25.7174 177.842 25.9508 176.475 25.9508Z" fill="white" fill-opacity="0.72"/>
<path d="M192.244 25.9508C190.927 25.9508 189.652 25.7508 188.419 25.3508C187.202 24.9341 186.244 24.4008 185.544 23.7508L186.469 21.8008C187.135 22.4008 187.985 22.8924 189.019 23.2758C190.069 23.6424 191.144 23.8258 192.244 23.8258C193.694 23.8258 194.777 23.5841 195.494 23.1008C196.21 22.6008 196.569 21.9424 196.569 21.1258C196.569 20.5258 196.369 20.0424 195.969 19.6758C195.585 19.2924 195.102 19.0008 194.519 18.8008C193.952 18.6008 193.144 18.3758 192.094 18.1258C190.777 17.8091 189.71 17.4924 188.894 17.1758C188.094 16.8591 187.402 16.3758 186.819 15.7258C186.252 15.0591 185.969 14.1674 185.969 13.0508C185.969 12.1174 186.21 11.2758 186.694 10.5258C187.194 9.77578 187.944 9.17578 188.944 8.72578C189.944 8.27578 191.185 8.05078 192.669 8.05078C193.702 8.05078 194.719 8.18411 195.719 8.45078C196.719 8.71745 197.577 9.10078 198.294 9.60078L197.469 11.6008C196.735 11.1341 195.952 10.7841 195.119 10.5508C194.285 10.3008 193.469 10.1758 192.669 10.1758C191.252 10.1758 190.185 10.4341 189.469 10.9508C188.769 11.4674 188.419 12.1341 188.419 12.9508C188.419 13.5508 188.619 14.0424 189.019 14.4258C189.419 14.7924 189.91 15.0841 190.494 15.3008C191.094 15.5008 191.902 15.7174 192.919 15.9508C194.235 16.2674 195.294 16.5841 196.094 16.9008C196.894 17.2174 197.577 17.7008 198.144 18.3508C198.727 19.0008 199.019 19.8758 199.019 20.9758C199.019 21.8924 198.769 22.7341 198.269 23.5008C197.769 24.2508 197.01 24.8508 195.994 25.3008C194.977 25.7341 193.727 25.9508 192.244 25.9508Z" fill="white" fill-opacity="0.72"/>
</svg>
