<svg width="115" height="34" viewBox="0 0 115 34" fill="none" xmlns="http://www.w3.org/2000/svg">
<g clip-path="url(#clip0_398_8519)">
<path fill-rule="evenodd" clip-rule="evenodd" d="M29.2069 17C29.2069 26.3884 21.5953 34 12.2069 34C8.41441 34 4.91111 32.7575 2.08368 30.659C2.56771 30.9306 3.06649 31.1755 3.58003 31.3969C5.525 32.2351 7.62049 32.6689 9.73958 32.6689C13.6856 32.6689 17.484 31.1755 20.3764 28.4957C23.2688 25.8158 25.0455 22.1413 25.3465 18.2071C25.3878 17.8352 25.4115 17.4634 25.4174 17.0915C25.4174 16.6163 25.379 16.0674 25.3288 15.5656C25.3259 15.5184 25.3229 15.4682 25.32 15.421C25.32 15.3649 25.317 15.3089 25.3111 15.2557L25.2964 15.2705C25.2255 14.6182 25.1517 14.1165 25.1517 14.1165H12.8179L11.8587 15.9109L9.65695 20.0724H18.9774C18.6321 21.1024 18.1156 22.0705 17.4516 22.9323C16.5455 24.1187 15.3797 25.078 14.0398 25.7391C12.7028 26.4002 11.23 26.7455 9.73663 26.7425C8.59445 26.7425 7.46111 26.5359 6.38976 26.1405C4.51563 25.4557 2.89826 24.2132 1.75608 22.5781C0.613889 20.9401 0 18.9951 0 17C0 15.722 0.250868 14.453 0.740799 13.2724C1.23073 12.0918 1.94792 11.0175 2.85104 10.1115C3.75417 9.20833 4.82847 8.48819 6.01198 8.00122C7.19549 7.51424 8.46163 7.26042 9.73958 7.26042C11.8026 7.25747 13.8155 7.91267 15.48 9.1316L16.758 6.73802L18.2809 3.86042C15.7398 2.20469 12.7707 1.32517 9.73663 1.32813C7.05382 1.32813 4.44184 2.01875 2.1309 3.29965C4.95538 1.22778 8.43802 0 12.2069 0C21.5953 0 29.2069 7.61163 29.2069 17Z" fill="#251B29"/>
<path d="M52.5287 20.7555C51.9207 21.4845 51.1592 22.066 50.2945 22.4585C49.5212 22.7979 48.6889 22.9691 47.8448 22.9632C46.7676 22.9809 45.7021 22.7212 44.7577 22.2047C44.7223 22.187 44.6957 22.1604 44.6603 22.1427C43.8132 21.6557 43.1138 20.9444 42.6415 20.0885C42.125 19.1411 41.8653 18.0786 41.883 17.0014C41.8653 15.9241 42.125 14.8587 42.6415 13.9142C43.1167 13.0583 43.8132 12.35 44.6603 11.8601C44.6957 11.8394 44.7223 11.8158 44.7577 11.7981C45.7051 11.2816 46.7676 11.0219 47.8448 11.0396C48.6889 11.0337 49.5242 11.2019 50.2974 11.5384L52.0506 8.2387C52.0506 8.2387 52.024 8.22394 52.0092 8.21804C50.625 7.63366 49.1346 7.34443 47.6323 7.36804C45.9737 7.35033 44.3327 7.71335 42.8363 8.43054C42.7124 8.49252 42.5796 8.53679 42.4556 8.60467C40.9563 9.39564 39.7049 10.5821 38.8372 12.0401C37.9488 13.5423 37.4914 15.2601 37.5209 17.0043C37.4943 18.7486 37.9488 20.4663 38.8372 21.9686C39.7049 23.4236 40.9592 24.6101 42.4556 25.401C42.5796 25.466 42.7124 25.5132 42.8363 25.5752C44.3238 26.2894 45.9559 26.6554 47.6058 26.6377C49.1139 26.6583 50.6073 26.3691 51.9974 25.7847C52.0151 25.7759 52.0329 25.767 52.0506 25.7581C53.3138 25.2121 54.4264 24.3739 55.2971 23.3085L52.5287 20.7526V20.7555Z" fill="#251B29"/>
<path d="M61.5933 25.3854C60.0851 24.5944 58.8219 23.4021 57.9453 21.9382C57.0599 20.4448 56.6025 18.7359 56.629 17.0005C56.6054 15.2651 57.0599 13.5562 57.9453 12.0628C58.8219 10.6019 60.0822 9.40953 61.5933 8.6156C63.2047 7.76855 65.0021 7.33765 66.8231 7.36421C68.6382 7.3347 70.4356 7.7656 72.0412 8.6156C73.5464 9.41248 74.8066 10.6048 75.6861 12.0628C76.5804 13.5533 77.0408 15.2621 77.0172 17.0005C77.0408 18.7389 76.5804 20.4477 75.6861 21.9382C74.8066 23.3962 73.5464 24.5885 72.0412 25.3854C70.4356 26.2354 68.6412 26.6663 66.8231 26.6368C65.0021 26.6633 63.2047 26.2354 61.5933 25.3854ZM69.804 22.2038C70.6835 21.705 71.4066 20.9731 71.8936 20.0877C72.4101 19.1403 72.6698 18.0778 72.6521 17.0005C72.6698 15.9232 72.4101 14.8578 71.8936 13.9133C71.4066 13.0279 70.6835 12.296 69.804 11.7972C68.895 11.2866 67.865 11.0239 66.8231 11.0387C65.7813 11.0239 64.7512 11.2866 63.8422 11.7972C62.9627 12.296 62.2396 13.0279 61.7526 13.9133C61.2361 14.8607 60.9764 15.9232 60.9941 17.0005C60.9735 18.0778 61.2361 19.1432 61.7526 20.0877C62.2396 20.9731 62.9627 21.705 63.8422 22.2038C64.7512 22.7144 65.7813 22.9771 66.8231 22.9623C67.8679 22.9771 68.895 22.7144 69.804 22.2038Z" fill="#251B29"/>
<path d="M92.139 26.3157L88.5472 21.1272H84.5805V26.3157H80.2686V7.68362H88.3318C89.8074 7.6482 91.2743 7.93154 92.6319 8.51001C93.7771 8.99994 94.751 9.81452 95.4387 10.8534C96.1146 11.9277 96.4569 13.1791 96.4245 14.4453C96.4569 15.7114 96.1116 16.9598 95.4269 18.0253C94.7274 19.0553 93.7416 19.8551 92.5936 20.3274L96.7727 26.3157H92.142H92.139ZM91.047 12.0369C90.1911 11.423 89.1463 11.1249 88.0927 11.1987H84.5805V17.6918H88.0927C89.1463 17.7656 90.1941 17.4645 91.047 16.8388C91.3864 16.5437 91.655 16.1748 91.8292 15.7586C92.0033 15.3425 92.083 14.8939 92.0564 14.4453C92.083 13.9937 92.0062 13.5392 91.8321 13.123C91.655 12.7039 91.3864 12.335 91.0441 12.0369H91.047Z" fill="#251B29"/>
<path d="M114.252 22.8562V26.3152H99.8252V7.68311H113.906V11.1451H104.111V15.1914H112.761V18.5442H104.111V22.8562H114.252Z" fill="#251B29"/>
</g>
<defs>
<clipPath id="clip0_398_8519">
<rect width="114.254" height="34" fill="white"/>
</clipPath>
</defs>
</svg>
