<svg width="119" height="34" viewBox="0 0 119 34" fill="none" xmlns="http://www.w3.org/2000/svg">
<path fill-rule="evenodd" clip-rule="evenodd" d="M34.899 16.8929C34.899 26.2172 27.3957 33.7761 18.1398 33.7761C14.4012 33.7761 10.9486 32.543 8.16079 30.4581C8.63795 30.7278 9.13036 30.9725 9.63624 31.1909C11.5536 32.0236 13.6195 32.4536 15.7075 32.4545C19.5964 32.453 23.3414 30.9731 26.194 28.3105C29.0467 25.6478 30.7966 21.9988 31.0942 18.0927C31.1361 17.7246 31.1591 17.3547 31.1632 16.9843C31.1632 16.5135 31.1242 15.9663 31.0768 15.4701C31.0724 15.4228 31.071 15.3747 31.0695 15.3266C31.0678 15.2711 31.066 15.2155 31.0599 15.1611L31.0465 15.1746C30.9779 14.5276 30.9042 14.0276 30.9042 14.0276H18.742L17.7972 15.8085L15.6255 19.9411H24.8149C24.4749 20.9653 23.9668 21.9249 23.3118 22.7799C22.4187 23.9576 21.268 24.9119 19.9491 25.5686C18.6302 26.2253 17.1787 26.5667 15.7075 26.5663C14.5811 26.5641 13.4639 26.3613 12.4075 25.9675C10.5608 25.2875 8.96591 24.0524 7.83876 22.4293C6.71158 20.8063 6.10651 18.8737 6.10535 16.8928C6.10535 15.6225 6.35368 14.3646 6.83622 13.191C7.31877 12.0174 8.02605 10.951 8.9177 10.0527C9.80933 9.15444 10.8679 8.44188 12.0329 7.95574C13.1979 7.4696 14.4465 7.21938 15.7075 7.21935C17.7426 7.2163 19.7256 7.86757 21.3678 9.07838L22.6285 6.70237L24.1297 3.84546C21.6248 2.20008 18.6979 1.3263 15.7075 1.33113C13.0642 1.33198 10.4869 2.01584 8.21098 3.29021C10.99 1.22822 14.4236 0.00976562 18.1398 0.00976562C27.3957 0.00976562 34.899 7.56861 34.899 16.8929Z" fill="#FF5700"/>
<path d="M57.8914 20.6195C57.2932 21.3436 56.5405 21.9222 55.6889 22.3119C54.928 22.6488 54.1046 22.8195 53.2734 22.8127C52.2111 22.8317 51.1622 22.5721 50.2297 22.0593C50.196 22.0403 50.1675 22.0163 50.1343 21.9968C49.2993 21.5118 48.6112 20.8069 48.1436 19.9578C47.6347 19.0184 47.3769 17.9618 47.3958 16.8918C47.3772 15.8217 47.635 14.7651 48.1436 13.8257C48.6112 12.9767 49.299 12.272 50.134 11.787C50.1672 11.7674 50.196 11.7432 50.2297 11.7243C51.1625 11.2119 52.2111 10.9523 53.2734 10.9709C54.1052 10.964 54.9289 11.133 55.6918 11.4672L57.4215 8.1898C57.4073 8.18335 57.3945 8.17497 57.3799 8.16858C56.0145 7.58938 54.5449 7.30161 53.0636 7.32342C51.4282 7.30639 49.8105 7.6677 48.3353 8.37953C48.2117 8.43994 48.0813 8.48622 47.96 8.55196C46.4825 9.33722 45.2477 10.5171 44.3917 11.9622C43.5157 13.4532 43.0662 15.1593 43.0929 16.8917C43.0662 18.6244 43.5157 20.3307 44.3917 21.8221C45.248 23.2668 46.4825 24.4463 47.96 25.2315C48.0816 25.2973 48.2117 25.3437 48.3356 25.4043C49.802 26.1146 51.4104 26.4761 53.0374 26.4609C54.523 26.482 55.997 26.1939 57.3671 25.6148C57.3849 25.607 57.4009 25.5967 57.4186 25.5888C58.663 25.0466 59.7605 24.2128 60.6203 23.1568L57.8914 20.6195Z" fill="#27333F"/>
<path d="M66.8256 25.2182C65.338 24.4317 64.0944 23.2474 63.2312 21.7955C62.3574 20.313 61.9079 18.6158 61.9323 16.8919C61.9079 15.1679 62.3574 13.4708 63.2312 11.9882C64.0947 10.5367 65.3385 9.35263 66.8256 8.5655C68.4139 7.72332 70.187 7.2963 71.9819 7.32359C73.7724 7.29525 75.5414 7.72242 77.1248 8.5655C78.608 9.35776 79.8504 10.5407 80.7192 11.9882C81.6008 13.468 82.0553 15.1662 82.0311 16.8919C82.0553 18.6175 81.6008 20.3158 80.7192 21.7955C79.851 23.2435 78.6086 24.4265 77.1248 25.2182C75.5417 26.062 73.7727 26.4896 71.9819 26.4611C70.1867 26.4885 68.4139 26.0611 66.8256 25.2182ZM74.9205 22.0594C75.7875 21.5651 76.5007 20.8374 76.9805 19.958C77.489 19.0184 77.7468 17.9619 77.7282 16.8919C77.7468 15.8218 77.489 14.7653 76.9805 13.8258C76.5007 12.9463 75.7875 12.2187 74.9205 11.7243C74.0241 11.2166 73.0101 10.9567 71.9819 10.971C70.9534 10.9566 69.9394 11.2165 69.043 11.7243C68.1759 12.2185 67.4628 12.9462 66.983 13.8258C66.4744 14.7653 66.2166 15.8218 66.2353 16.8919C66.2163 17.9619 66.4741 19.0185 66.983 19.958C67.4628 20.8375 68.1759 21.5652 69.043 22.0594C69.9394 22.5677 70.9534 22.8276 71.9819 22.8128C73.0101 22.8275 74.0241 22.5675 74.9205 22.0594Z" fill="#27333F"/>
<path d="M96.9356 26.1451L93.3933 20.991H89.4837V26.1451H85.2329V7.64146H93.1832C94.6377 7.60734 96.0826 7.88667 97.421 8.4608C98.549 8.94838 99.5112 9.75717 100.189 10.7879C100.854 11.8551 101.192 13.0962 101.16 14.3559C101.193 15.6136 100.85 16.8523 100.176 17.9115C99.4879 18.9334 98.5158 19.7285 97.3817 20.1975L101.501 26.1451H96.9356ZM95.8594 11.9638C95.0148 11.3529 93.9848 11.0583 92.9473 11.1311H89.4837V17.5807H92.9473C93.9868 17.6538 95.0183 17.3541 95.8594 16.7346C96.1946 16.4408 96.4588 16.0738 96.6316 15.6615C96.8044 15.2493 96.8815 14.8027 96.8568 14.3559C96.8841 13.9068 96.8082 13.4574 96.6354 13.0426C96.4623 12.6277 96.1969 12.2587 95.8594 11.9638Z" fill="#27333F"/>
<path d="M118.74 22.7082V26.1443H104.518V7.64062H118.398V11.0777H108.742V15.0951H117.27V18.426H108.742V22.7081L118.74 22.7082Z" fill="#27333F"/>
</svg>
