<svg width="32" height="32" viewBox="0 0 32 32" fill="none" xmlns="http://www.w3.org/2000/svg">
<path d="M16 28H25.3333C26.0406 28 26.7189 27.719 27.219 27.219C27.719 26.7189 28 26.0406 28 25.3333V6.66667C28 5.95942 27.719 5.28115 27.219 4.78105C26.7189 4.28095 26.0406 4 25.3333 4H6.66667C5.95942 4 5.28115 4.28095 4.78105 4.78105C4.28095 5.28115 4 5.95942 4 6.66667V14.6667" stroke="#5D40BF" stroke-width="2" stroke-linecap="round" stroke-linejoin="round"/>
<path d="M24 12H21.3333L19.5547 14.6666L17.1853 9.33331L15.4067 12H8" stroke="#5D40BF" stroke-width="2" stroke-linecap="round" stroke-linejoin="round"/>
<path d="M28.0007 20H17.334" stroke="#5D40BF" stroke-width="2" stroke-linecap="round" stroke-linejoin="round"/>
<path d="M7.99935 28C10.9449 28 13.3327 25.6122 13.3327 22.6666C13.3327 19.7211 10.9449 17.3333 7.99935 17.3333C5.05383 17.3333 2.66602 19.7211 2.66602 22.6666C2.66602 25.6122 5.05383 28 7.99935 28Z" stroke="#5D40BF" stroke-width="2" stroke-linecap="round" stroke-linejoin="round"/>
<path d="M6.33398 22.5163L7.66732 23.8496L9.66732 21.8496" stroke="#5D40BF" stroke-width="2" stroke-linecap="round" stroke-linejoin="round"/>
<ellipse cx="18.9096" cy="24" rx="1.45455" ry="1.45454" fill="#5D40BF"/>
<ellipse cx="23.2729" cy="24" rx="1.45455" ry="1.45454" fill="#5D40BF"/>
</svg>
