<svg width="32" height="33" viewBox="0 0 32 33" fill="none" xmlns="http://www.w3.org/2000/svg">
<path d="M2 8.18705V17.6361C2 24.1724 10.0603 29.0446 13.897 30.9942C14.5082 31.3053 15.1844 31.4672 15.8703 31.4666C16.5561 31.4661 17.2321 31.303 17.8428 30.9908C21.682 29.0394 29.7333 24.179 29.7333 17.6361V8.17873C29.7271 7.75237 29.565 7.34303 29.2777 7.02795C28.9904 6.71287 28.5977 6.51384 28.1737 6.4684C24.4943 6.18959 20.9665 4.88536 17.9906 2.7036C17.3767 2.24674 16.6319 2 15.8667 2C15.1015 2 14.3567 2.24674 13.7429 2.7036C10.7681 4.88455 7.24181 6.18864 3.56376 6.46809C3.13831 6.5146 2.74453 6.715 2.45653 7.03159C2.16852 7.34818 2.00616 7.75911 2 8.18705Z" stroke="#5D40BF" stroke-width="2" stroke-linecap="round" stroke-linejoin="round"/>
<path d="M19.4772 23.234H12.255C11.4569 23.234 10.8105 22.5877 10.8105 21.7896V16.0118C10.8105 15.2138 11.4569 14.5674 12.255 14.5674H19.4772C20.2753 14.5674 20.9217 15.2138 20.9217 16.0118V21.7896C20.9217 22.5877 20.2753 23.234 19.4772 23.234Z" stroke="#5D40BF" stroke-width="2" stroke-linecap="round" stroke-linejoin="round"/>
<path d="M15.8672 20.4096V18.5391" stroke="#5D40BF" stroke-width="2" stroke-linecap="round" stroke-linejoin="round"/>
<path d="M16.2489 17.6147C16.4604 17.8262 16.4604 18.1692 16.2489 18.3807C16.0374 18.5923 15.6944 18.5923 15.4829 18.3807C15.2713 18.1692 15.2713 17.8262 15.4829 17.6147C15.6944 17.4032 16.0374 17.4032 16.2489 17.6147Z" stroke="#5D40BF" stroke-width="2" stroke-linecap="round" stroke-linejoin="round"/>
<path d="M12.9785 14.5667V13.1223C12.9785 11.5269 14.272 10.2334 15.8674 10.2334C17.4628 10.2334 18.7563 11.5269 18.7563 13.1223V14.5667" stroke="#5D40BF" stroke-width="2" stroke-linecap="round" stroke-linejoin="round"/>
</svg>
