<svg width="32" height="32" viewBox="0 0 32 32" fill="none" xmlns="http://www.w3.org/2000/svg">
<path d="M8.63281 23.3333V24.6667" stroke="#5D40BF" stroke-width="2" stroke-linecap="round" stroke-linejoin="round"/>
<path d="M12.6328 23.3333V24.6667" stroke="#5D40BF" stroke-width="2" stroke-linecap="round" stroke-linejoin="round"/>
<path d="M17.334 24H24.0007" stroke="#5D40BF" stroke-width="2" stroke-linecap="round" stroke-linejoin="round"/>
<path d="M26 20H6C4.89543 20 4 20.8954 4 22V26C4 27.1046 4.89543 28 6 28H26C27.1046 28 28 27.1046 28 26V22C28 20.8954 27.1046 20 26 20Z" stroke="#5D40BF" stroke-width="2" stroke-linecap="round" stroke-linejoin="round"/>
<path d="M10.5955 6.54452C9.40056 6.70494 8.31135 7.31388 7.54884 8.24782C6.78633 9.18176 6.40761 10.3708 6.48949 11.5737C6.57137 12.7766 7.10773 13.9033 7.98977 14.7253C8.8718 15.5473 10.0335 16.003 11.2392 16H21.7129C22.2133 16 22.7087 15.9015 23.171 15.71C23.6333 15.5185 24.0533 15.2379 24.4071 14.8841C24.7609 14.5303 25.0415 14.1102 25.233 13.648C25.4245 13.1857 25.523 12.6903 25.523 12.1899C25.523 11.6896 25.4245 11.1941 25.233 10.7319C25.0415 10.2696 24.7609 9.84957 24.4071 9.49577C24.0533 9.14197 23.6333 8.86132 23.171 8.66985C22.7087 8.47837 22.2133 8.37982 21.7129 8.37982C21.7138 7.02615 21.2336 5.71621 20.3582 4.68373C19.4827 3.65125 18.2689 2.9634 16.9333 2.74292C15.5977 2.52243 14.2272 2.78365 13.0664 3.47997C11.9055 4.17628 11.0298 5.2624 10.5955 6.54452V6.54452Z" stroke="#5D40BF" stroke-width="2" stroke-linecap="round" stroke-linejoin="round"/>
</svg>
