<svg width="32" height="32" viewBox="0 0 32 32" fill="none" xmlns="http://www.w3.org/2000/svg">
<path d="M18.7998 14.6667C18.2918 13.8773 17.2345 13.3333 16.0038 13.3333C14.7732 13.3333 13.7158 13.8773 13.2012 14.6667" stroke="#5D40BF" stroke-width="2" stroke-linecap="round" stroke-linejoin="round"/>
<path d="M22.2022 11.9627C20.8369 10.3747 18.5729 9.33334 16.0022 9.33334C13.4289 9.33334 11.1622 10.3773 9.79688 11.9667" stroke="#5D40BF" stroke-width="2" stroke-linecap="round" stroke-linejoin="round"/>
<path d="M19.11 21.3333H26.762C28.182 21.3333 29.3327 20.1827 29.3327 18.764V6.56933C29.3327 5.15067 28.182 4 26.7633 4H5.23535C3.81668 4 2.66602 5.15067 2.66602 6.56933V18.764C2.66602 20.1827 3.81668 21.3333 5.23535 21.3333H12.8873" stroke="#5D40BF" stroke-width="2" stroke-linecap="round" stroke-linejoin="round"/>
<path d="M17.5553 28H14.4447C13.586 28 12.8887 27.304 12.8887 26.444V20.2213C12.8887 19.3627 13.5847 18.6653 14.4447 18.6653H17.5553C18.414 18.6653 19.1113 19.3613 19.1113 20.2213V26.444C19.11 27.304 18.414 28 17.5553 28Z" stroke="#5D40BF" stroke-width="2" stroke-linecap="round" stroke-linejoin="round"/>
</svg>
