<svg xmlns="http://www.w3.org/2000/svg" width="20" height="20" viewBox="0 0 20 20" fill="none">
<path d="M10 15V4.16667" stroke="#ff4c00" stroke-width="1.5" stroke-linecap="round" stroke-linejoin="round"/>
<path d="M14.5 11C13.779 10.7892 11.1457 10.1839 10.695 9.58292C10.2443 8.98198 10.0005 8.25117 10 7.5C9.99955 8.25117 9.7557 8.98198 9.305 9.58292C8.8543 10.1839 6.721 10.7892 6 11" stroke="#ff4c00" stroke-width="1.5" stroke-linecap="round" stroke-linejoin="round"/>
<path d="M14.1484 5.99999C14.3401 5.6679 14.9695 4.71282 14.9946 4.33016C15.0197 3.94751 14.9565 3.5642 14.8097 3.20991C14.663 2.85562 14.4367 2.53983 14.1484 2.28698C13.8601 2.03413 13.5175 1.851 13.1471 1.75175C12.7766 1.65249 12.3884 1.63978 12.0123 1.7146C11.6361 1.78941 11.2823 1.94975 10.9781 2.18321C10.6738 2.41666 10.4274 2.71697 10.2578 3.06091C10.0882 3.40485 9.99998 3.78319 10 4.16667C10 3.78319 9.91181 3.40485 9.74222 3.06091C9.57262 2.71697 9.32617 2.41666 9.02194 2.18321C8.71771 1.94975 8.36386 1.78941 7.98775 1.7146C7.61164 1.63978 7.22336 1.65249 6.85294 1.75175C6.48253 1.851 6.13992 2.03413 5.85161 2.28698C5.5633 2.53983 5.33702 2.85562 5.19028 3.20991C5.04353 3.5642 4.98026 3.94751 5.00536 4.33016C5.03046 4.71282 5.80824 5.6679 6 5.99999" stroke="#ff4c00" stroke-width="1.5" stroke-linecap="round" stroke-linejoin="round"/>
<path d="M14.9975 4.27083C15.4873 4.39678 15.9421 4.63254 16.3273 4.96026C16.7125 5.28798 17.0181 5.69906 17.221 6.16237C17.4238 6.62568 17.5185 7.12908 17.498 7.63443C17.4775 8.13977 17.3422 8.63383 17.1025 9.07917" stroke="#ff4c00" stroke-width="1.5" stroke-linecap="round" stroke-linejoin="round"/>
<path d="M14 15C14.7338 14.9999 16.447 14.7578 17.0291 14.3111C17.6112 13.8644 18.0297 13.2382 18.2196 12.5294C18.4095 11.8207 18.3603 11.069 18.0795 10.3911C17.7987 9.71323 16.6354 8.86688 16 8.49997" stroke="#ff4c00" stroke-width="1.5" stroke-linecap="round" stroke-linejoin="round"/>
<path d="M16.6391 14.5692C16.6975 15.021 16.6627 15.4801 16.5367 15.9179C16.4108 16.3558 16.1964 16.7632 15.9068 17.115C15.6172 17.4667 15.2586 17.7554 14.8531 17.9631C14.4476 18.1709 14.0038 18.2933 13.5492 18.3228C13.0945 18.3523 12.6386 18.2883 12.2097 18.1347C11.7807 17.9811 11.3878 17.7412 11.0552 17.4298C10.7226 17.1184 10.4573 16.7421 10.2758 16.3242C10.0944 15.9063 10.0005 15.4556 9.99998 15C9.99949 15.4556 9.9056 15.9063 9.72411 16.3242C9.54262 16.7421 9.27739 17.1184 8.94478 17.4298C8.61217 17.7412 8.21926 17.9811 7.7903 18.1347C7.36135 18.2883 6.90546 18.3523 6.45079 18.3228C5.99613 18.2933 5.55233 18.1709 5.14683 17.9631C4.74132 17.7554 4.38271 17.4667 4.09313 17.115C3.80356 16.7632 3.58917 16.3558 3.46322 15.9179C3.33726 15.4801 3.30241 15.021 3.36081 14.5692" stroke="#ff4c00" stroke-width="1.5" stroke-linecap="round" stroke-linejoin="round"/>
<path d="M6 15C5.26625 14.9999 3.553 14.7578 2.97089 14.3111C2.38877 13.8644 1.97031 13.2382 1.78039 12.5294C1.59048 11.8207 1.63973 11.069 1.92051 10.3911C2.20129 9.71323 3.36457 8.86688 4 8.49997" stroke="#ff4c00" stroke-width="1.5" stroke-linecap="round" stroke-linejoin="round"/>
<path d="M5.00252 4.27083C4.51269 4.39678 4.05794 4.63254 3.67272 4.96026C3.28749 5.28798 2.98189 5.69906 2.77906 6.16237C2.57623 6.62568 2.48149 7.12908 2.50201 7.63443C2.52254 8.13977 2.65779 8.63383 2.89752 9.07917" stroke="#ff4c00" stroke-width="1.5" stroke-linecap="round" stroke-linejoin="round"/>
</svg>