<svg xmlns="http://www.w3.org/2000/svg" width="20" height="20" viewBox="0 0 20 20" fill="none">
<path d="M3.17955 17.9167C6.94593 16.5767 13.0534 16.5767 16.8208 17.9167M6.31877 6.6734L9.99794 8.87483L13.6521 6.68633M9.99794 12.7779V8.87052M5.36669 2.08333H14.625C17.5917 2.08333 18.3334 2.85017 18.3334 5.9089V11.3629C18.3334 14.4303 17.5917 15.1885 14.6334 15.1885H5.36669C2.40835 15.1971 1.66669 14.4303 1.66669 11.3715V5.9089C1.66669 2.85017 2.40835 2.08333 5.36669 2.08333ZM9.13544 4.5366L6.91044 5.81179C6.40627 6.10043 5.99377 6.82419 5.99377 7.4187V9.85276C5.99377 10.4473 6.40627 11.171 6.91044 11.4597L9.13544 12.7392C9.61044 13.0106 10.3896 13.0106 10.8646 12.7392L13.0896 11.4597C13.5938 11.171 14.0063 10.4473 14.0063 9.85276V7.4187C14.0063 6.82419 13.5938 6.10043 13.0896 5.81179L10.8646 4.53229C10.3854 4.26088 9.61044 4.26088 9.13544 4.5366Z" stroke="#ff4c00" stroke-width="1.5" stroke-linecap="round" stroke-linejoin="round"/>
</svg>