<svg xmlns="http://www.w3.org/2000/svg" width="20" height="20" viewBox="0 0 20 20" fill="none">
<path d="M18.3334 9.99999C18.3334 5.39999 14.6 1.66666 10 1.66666C5.40002 1.66666 1.66669 5.39999 1.66669 9.99999C1.66669 14.6 5.40002 18.3333 10 18.3333M6.66669 2.49999H7.50003C5.87503 7.36666 5.87503 12.6333 7.50003 17.5H6.66669M12.5 2.49999C13.3084 4.93332 13.7167 7.46666 13.7167 9.99999M2.50002 13.3333V12.5C4.93335 13.3083 7.46669 13.7167 10 13.7167M2.50002 7.49997C7.36669 5.87497 12.6334 5.87497 17.5 7.49997M12.4131 13.8163C13.0727 11.2239 16.9365 11.224 17.5928 13.8164C17.9778 15.337 16.5249 16.4078 15.6289 17.2858C14.6245 18.2699 15.2763 18.3443 14.3033 17.2858C13.3302 16.2273 12.0281 15.337 12.4131 13.8163Z" stroke="#ff4c00" stroke-width="1.5" stroke-linecap="round"/>
</svg>