<svg xmlns="http://www.w3.org/2000/svg" width="20" height="20" viewBox="0 0 20 20" fill="none">
<path d="M5.58336 15H3.45837C2.26671 15 1.66669 14.4 1.66669 13.2084V3.4584C1.66669 2.26674 2.26671 1.66672 3.45837 1.66672H7.0417C8.23336 1.66672 8.83333 2.26674 8.83333 3.4584V5.00005M11.1667 5.00005V3.4584C11.1667 2.26674 11.7667 1.66672 12.9583 1.66672H16.5417C17.7333 1.66672 18.3334 2.26674 18.3334 3.4584V13.2084C18.3334 14.4 17.7333 15 16.5417 15H14.475M8.33335 9.16672H11.6667M8.33335 11.6667H11.6667M10 18.3334V15.8334M14.475 7.0167V16.3167C14.475 17.6584 13.8084 18.3334 12.4667 18.3334H7.60002C6.25835 18.3334 5.58336 17.6584 5.58336 16.3167V7.0167C5.58336 5.67504 6.25835 5.00005 7.60002 5.00005H12.4667C13.8084 5.00005 14.475 5.67504 14.475 7.0167Z" stroke="currentColor" stroke-width="1.5" stroke-miterlimit="10" stroke-linecap="round" stroke-linejoin="round"/>
</svg>
