<svg xmlns="http://www.w3.org/2000/svg" width="20" height="20" viewBox="0 0 20 20" fill="none">
<path d="M6.93725 7.61336L4.94491 9.5779C4.71287 9.80671 4.71287 10.1933 4.94491 10.4221L6.93725 12.3867M13.5212 7.61352L15.5136 9.57807C15.7456 9.80687 15.7456 10.1935 15.5136 10.4223L13.5212 12.3868M11.6556 6.1909L8.89624 13.8094M1.875 7.25528V12.7447C1.875 13.7362 2.42505 14.6482 3.30851 15.1215L8.69019 18.0051C9.507 18.4427 10.493 18.4428 11.3098 18.0051L16.6915 15.1215C17.5749 14.6482 18.125 13.7362 18.125 12.7447V7.25528C18.125 6.26384 17.5749 5.35183 16.6915 4.87846L11.3098 1.99491C10.493 1.55726 9.507 1.55726 8.6902 1.99491L3.30852 4.87846C2.42505 5.35183 1.875 6.26384 1.875 7.25528Z" stroke="#ff4c00" stroke-width="1.5" stroke-linecap="round" stroke-linejoin="round"/>
</svg>