<svg
  xmlns="http://www.w3.org/2000/svg"
  width="20"
  height="20"
  viewBox="0 0 19 21"
  fill="none"
  aria-hidden="true"
>
  <path
    d="M7.05 3.05C6.75 2.05 6.35 1.35 5.75 0.75"
    stroke="#ff4c00"
    stroke-width="1.5"
    stroke-linecap="round"
  />
  <path
    d="M12.05 3.05C12.35 2.05 12.75 1.35 13.35 0.75"
    stroke="#ff4c00"
    stroke-width="1.5"
    stroke-linecap="round"
  />
  <path
    d="M9.55005 19.55C13.9683 19.55 17.55 15.9683 17.55 11.55C17.55 7.13177 13.9683 3.55005 9.55005 3.55005C5.13177 3.55005 1.55005 7.13177 1.55005 11.55C1.55005 15.9683 5.13177 19.55 9.55005 19.55Z"
    stroke="#ff4c00"
    stroke-width="1.5"
  />
  <path
    d="M7.0501 11.75C7.71284 11.75 8.2501 11.2127 8.2501 10.55C8.2501 9.88723 7.71284 9.34998 7.0501 9.34998C6.38736 9.34998 5.8501 9.88723 5.8501 10.55C5.8501 11.2127 6.38736 11.75 7.0501 11.75Z"
    fill="#ff4c00"
  />
  <path
    d="M12.0501 11.75C12.7128 11.75 13.2501 11.2127 13.2501 10.55C13.2501 9.88723 12.7128 9.34998 12.0501 9.34998C11.3874 9.34998 10.8501 9.88723 10.8501 10.55C10.8501 11.2127 11.3874 11.75 12.0501 11.75Z"
    fill="#ff4c00"
  />
  <path
    d="M7.55005 14.05C8.05005 15.05 11.05 15.05 11.55 14.05"
    stroke="#ff4c00"
    stroke-width="1.5"
    stroke-linecap="round"
  />
  <path
    d="M13.7 20.15C14.3627 20.15 14.9 19.6127 14.9 18.95C14.9 18.2873 14.3627 17.75 13.7 17.75C13.0373 17.75 12.5 18.2873 12.5 18.95C12.5 19.6127 13.0373 20.15 13.7 20.15Z"
    fill="#ff4c00"
  />
  <path
    d="M17.7 15.15C18.3627 15.15 18.9 14.6127 18.9 13.95C18.9 13.2873 18.3627 12.75 17.7 12.75C17.0373 12.75 16.5 13.2873 16.5 13.95C16.5 14.6127 17.0373 15.15 17.7 15.15Z"
    fill="#ff4c00"
  />
  <path
    d="M1.2 15.35C1.86274 15.35 2.4 14.8127 2.4 14.15C2.4 13.4872 1.86274 12.95 1.2 12.95C0.537258 12.95 0 13.4872 0 14.15C0 14.8127 0.537258 15.35 1.2 15.35Z"
    fill="#ff4c00"
  />
  <path
    d="M5.0999 19.95C5.76264 19.95 6.2999 19.4128 6.2999 18.75C6.2999 18.0873 5.76264 17.55 5.0999 17.55C4.43716 17.55 3.8999 18.0873 3.8999 18.75C3.8999 19.4128 4.43716 19.95 5.0999 19.95Z"
    fill="#ff4c00"
  />
</svg>
