<svg xmlns="http://www.w3.org/2000/svg" width="20" height="20" viewBox="0 0 20 20" fill="none">
<path d="M15.5 7.34572C15.5 10.4234 13.1536 13.3012 10 14C6.84644 13.3012 4.5 10.4234 4.5 7.34572V4.67262C4.5 4.12227 4.83756 3.62615 5.29475 3.44248L8.73225 2.05577C9.56619 1.71892 10.4338 1.71892 11.2079 2.03137L14.6454 3.41808C15.1624 3.62683 15.5 4.12227 15.5 4.67262V7.34572Z" stroke="#ff4c00" stroke-width="1.5" stroke-linecap="round" stroke-linejoin="round"/>
<path d="M9.97368 14.0263V15.9436M9.97368 15.9436C9.27526 15.9436 8.70908 16.5159 8.70908 17.2218M9.97368 15.9436C10.6721 15.9436 11.2383 16.5159 11.2383 17.2218M11.2383 17.2218C11.2383 17.9277 10.6721 18.5 9.97368 18.5C9.27526 18.5 8.70908 17.9277 8.70908 17.2218M11.2383 17.2218H14.4474M8.70908 17.2218H5.5" stroke="#ff4c00" stroke-width="1.5" stroke-miterlimit="10" stroke-linecap="round" stroke-linejoin="round"/>
</svg>
