<svg xmlns="http://www.w3.org/2000/svg" width="20" height="20" viewBox="0 0 20 20" fill="none">
<path d="M2.5 10H1.75H2.5ZM2.5 15.5556H1.75H2.5ZM10 18.3333V19.0833V18.3333ZM17.5 15.5556H18.25H17.5ZM17.5 4.44445H16.75C16.75 4.53273 16.7042 4.70949 16.4165 4.96144C16.1303 5.21209 15.6728 5.47199 15.0428 5.70532C13.7886 6.16985 12.0058 6.47223 10 6.47223V7.97223C12.1363 7.97223 14.1035 7.65278 15.5638 7.11195C16.291 6.8426 16.9319 6.50393 17.4047 6.08994C17.876 5.67722 18.25 5.12323 18.25 4.44445H17.5ZM10 7.22223V6.47223C7.99416 6.47223 6.2114 6.16985 4.95718 5.70532C4.32718 5.47199 3.86973 5.21209 3.58347 4.96144C3.29575 4.70949 3.25 4.53273 3.25 4.44445H2.5H1.75C1.75 5.12323 2.12398 5.67722 2.5953 6.08994C3.06809 6.50393 3.70899 6.8426 4.43621 7.11195C5.89646 7.65278 7.8637 7.97223 10 7.97223V7.22223ZM2.5 4.44445H3.25C3.25 4.35616 3.29575 4.17941 3.58347 3.92746C3.86973 3.6768 4.32718 3.41691 4.95718 3.18358C6.2114 2.71905 7.99416 2.41667 10 2.41667V1.66667V0.916672C7.8637 0.916672 5.89646 1.23612 4.43621 1.77695C3.70899 2.0463 3.06809 2.38496 2.5953 2.79896C2.12398 3.21167 1.75 3.76567 1.75 4.44445H2.5ZM10 1.66667V2.41667C12.0058 2.41667 13.7886 2.71905 15.0428 3.18358C15.6728 3.41691 16.1303 3.6768 16.4165 3.92746C16.7042 4.17941 16.75 4.35616 16.75 4.44445H17.5H18.25C18.25 3.76567 17.876 3.21167 17.4047 2.79896C16.9319 2.38496 16.291 2.0463 15.5638 1.77695C14.1035 1.23612 12.1363 0.916672 10 0.916672V1.66667ZM2.5 4.44445H1.75V10H2.5H3.25V4.44445H2.5ZM2.5 10H1.75C1.75 10.6564 2.10416 11.2047 2.57099 11.6221C3.0386 12.0402 3.68145 12.388 4.43621 12.6675L4.6967 11.9642L4.95719 11.2609C4.30543 11.0195 3.84992 10.7535 3.57082 10.5039C3.29093 10.2537 3.25 10.0803 3.25 10H2.5ZM4.6967 11.9642L4.43621 12.6675C5.94837 13.2276 7.94928 13.5278 10 13.5278V12.7778V12.0278C8.07247 12.0278 6.25807 11.7427 4.95719 11.2609L4.6967 11.9642ZM10 12.7778V13.5278C12.0507 13.5278 14.0516 13.2276 15.5638 12.6675L15.3033 11.9642L15.0428 11.2609C13.7419 11.7427 11.9275 12.0278 10 12.0278V12.7778ZM15.3033 11.9642L15.5638 12.6675C16.3186 12.388 16.9614 12.0402 17.429 11.6221C17.8958 11.2047 18.25 10.6564 18.25 10H17.5H16.75C16.75 10.0803 16.7091 10.2537 16.4292 10.5039C16.1501 10.7535 15.6946 11.0195 15.0428 11.2609L15.3033 11.9642ZM17.5 10H18.25V4.44445H17.5H16.75V10H17.5ZM2.5 10H1.75V15.5556H2.5H3.25V10H2.5ZM2.5 15.5556H1.75C1.75 16.2119 2.10416 16.7602 2.57099 17.1777C3.0386 17.5958 3.68145 17.9435 4.43621 18.2231L4.6967 17.5197L4.95719 16.8164C4.30543 16.575 3.84992 16.309 3.57082 16.0595C3.29093 15.8092 3.25 15.6359 3.25 15.5556H2.5ZM4.6967 17.5197L4.43621 18.2231C5.94837 18.7831 7.94928 19.0833 10 19.0833V18.3333V17.5833C8.07247 17.5833 6.25807 17.2982 4.95719 16.8164L4.6967 17.5197ZM10 18.3333V19.0833C12.0507 19.0833 14.0516 18.7831 15.5638 18.2231L15.3033 17.5197L15.0428 16.8164C13.7419 17.2982 11.9275 17.5833 10 17.5833V18.3333ZM15.3033 17.5197L15.5638 18.2231C16.3186 17.9435 16.9614 17.5958 17.429 17.1777C17.8958 16.7602 18.25 16.2119 18.25 15.5556H17.5H16.75C16.75 15.6359 16.7091 15.8092 16.4292 16.0595C16.1501 16.309 15.6946 16.575 15.0428 16.8164L15.3033 17.5197ZM17.5 15.5556H18.25V10H17.5H16.75V15.5556H17.5Z" fill="#ff4c00" stroke="none"/>
</svg>