<svg xmlns="http://www.w3.org/2000/svg" width="20" height="20" viewBox="0 0 20 20" fill="none">
<path d="M17.1573 14.6255C18.4962 14.6255 19.1666 13.5331 19.1666 11.2932V8.60523C19.1666 6.36529 18.4962 5.66579 17.1573 5.66579M2.73415 5.66587C1.39527 5.66587 0.833275 6.45971 0.833275 8.69965L0.833274 11.3876C0.833274 13.6275 1.39527 14.6256 2.73415 14.6256M7.83669 17.0833H12.2104C15.8551 17.0833 17.313 15.6667 17.313 12.125V7.875C17.313 4.33334 15.8551 2.91667 12.2104 2.91667H7.83669C4.19197 2.91667 2.73408 4.33334 2.73408 7.875V12.125C2.73408 15.6667 4.19197 17.0833 7.83669 17.0833ZM7.67429 9.12566C7.67429 7.8628 8.59276 7.34673 9.71742 7.97816L11.5294 8.99816C12.654 9.62959 12.654 10.6617 11.5294 11.2932L9.71742 12.3132C8.59276 12.9446 7.67429 12.4285 7.67429 11.1657V9.12566Z" stroke="#ff4c00" stroke-width="1.5" stroke-linecap="round" stroke-linejoin="round"/>
</svg>