<svg xmlns="http://www.w3.org/2000/svg" width="20" height="20" viewBox="0 0 20 20" fill="none">
<path d="M10 18.3334C12.1667 18.3334 14.1334 17.5084 15.6167 16.15C15.5334 15.3667 15.0334 14.6 14.1417 14C11.875 12.4834 8.14169 12.4834 5.85836 14C4.9667 14.6 4.4667 15.3667 4.38336 16.15C5.8667 17.5084 7.83336 18.3334 10 18.3334ZM10 18.3334C14.6024 18.3334 18.3334 14.6024 18.3334 10C18.3334 5.39765 14.6024 1.66669 10 1.66669C5.39765 1.66669 1.66669 5.39765 1.66669 10C1.66669 14.6024 5.39766 18.3334 10 18.3334ZM10.1 10.65C10.0417 10.6417 9.96666 10.6417 9.9 10.65C8.43333 10.6 7.26666 9.4 7.26666 7.925C7.26666 6.41667 8.48333 5.19167 10 5.19167C11.5083 5.19167 12.7333 6.41667 12.7333 7.925C12.725 9.4 11.5667 10.6 10.1 10.65Z" stroke="#ff4c00" stroke-width="1.5" stroke-linecap="round" stroke-linejoin="round"/>
</svg>